<?xml version="1.0" encoding="UTF-8"?>
<svg width="140px" height="150px" viewBox="0 0 130 70" version="1.1" xmlns="http://www.w3.org/2000/svg" xmlns:xlink="http://www.w3.org/1999/xlink">
    <!-- Generator: Sketch 49 (51002) - http://www.bohemiancoding.com/sketch -->
    <title>Dudes</title>
    <desc>Created with Sketch.</desc>
    <defs></defs>
    <g id="Page-Updates---032018" stroke="none" stroke-width="1" fill="none" fill-rule="evenodd">
        <g id="Home---768" transform="translate(-88.000000, -1747.000000)">
            <g id="Section---Explore..." transform="translate(50.000000, 1319.000000)">
                <g id="Cards" transform="translate(0.000000, 150.768707)">
                    <g id="Card" transform="translate(30.000000, 233.000000)">
                        <g id="Icon" transform="translate(0.000000, 6.000000)">
                            <g id="Icon---Monitoring" transform="translate(8.000000, 39.000000)">
                                <g id="Dudes" transform="translate(0.000000, 0.000000)">
                                    <path d="M38.3782445,32.1950073 L38.3782445,41.2340145 C38.3782445,42.4113955 37.4107052,43.3726749 36.2214773,43.3726749 L36.0580289,43.3726749 C34.868801,43.3726749 33.9012617,42.4113955 33.9012617,41.2340145 L33.9012617,32.1950073 C33.9012617,31.0157634 34.868801,30.0563469 36.0580289,30.0563469 L36.2214773,30.0563469 C37.4107052,30.0563469 38.3782445,31.0157634 38.3782445,32.1950073 Z M87.872184,46.1578571 C87.9175394,45.9825293 88.0316594,45.8354803 88.1925979,45.7421606 C88.3564626,45.650255 88.5408104,45.6205624 88.722232,45.6643943 L92.1575383,46.4957872 C92.3374968,46.541033 92.49112,46.6513198 92.5876831,46.8068525 C92.6842462,46.9623852 92.7135078,47.1447826 92.6491324,47.390807 C92.5569585,47.752774 92.1780214,47.9747615 91.7990843,47.8828559 L88.362315,47.0500491 C88.1823564,47.0076311 88.0301963,46.8959303 87.9321701,46.7403977 C87.835607,46.584865 87.8078085,46.4024676 87.872184,46.1578571 Z M77.9671485,23.6763154 L77.9671485,30.5367205 C77.9671485,31.4303264 77.2136635,32.159916 76.2875354,32.159916 L76.1602476,32.159916 C76.0991943,32.159916 76.0432371,32.1567453 75.9919695,32.150566 C75.9879761,31.2353208 75.9984741,23.0178526 76.0108091,22.0603434 C76.0568698,22.0555641 76.1065906,22.0531198 76.1602476,22.0531198 L76.2875354,22.0531198 C77.2136635,22.0531198 77.9671485,22.7812956 77.9671485,23.6763154 Z M75.4843058,15.1183675 L75.4843058,13.5242733 C75.4843058,6.06718838 82.3724752,0 90.8393054,0 L91.793232,0 C96.0200632,0 100.109365,1.57229398 103.012111,4.31249699 C103.303264,4.58821401 102.270331,5.61190181 101.979178,5.33618479 C99.3485648,2.85331768 95.6352738,1.42948671 91.793232,1.42948671 L90.8393054,1.42948671 C83.1874094,1.42948671 76.9620142,6.85616324 76.9620142,13.5242733 L76.9620142,20.6985716 C77.7277389,20.8604714 78.3910302,21.2904765 78.8391629,21.8816531 C78.7159125,23.882389 78.6692361,30.8088945 78.6633245,32.5391375 C78.2376114,33.0065681 77.6657934,33.347818 77.0176111,33.4974971 C77.5296883,38.8577187 81.4361055,43.5081458 86.7836542,45.0988209 C86.9562974,44.8612801 87.1742959,44.6647434 87.4332607,44.5148664 C87.9321701,44.2250101 88.5203273,44.141588 89.0821491,44.2773256 L92.5174554,45.1101324 C93.0807403,45.24587 93.5562405,45.5880419 93.8561714,46.0716071 C94.1561023,46.5565863 94.243887,47.1221597 94.1019684,47.6665241 C93.9439561,48.282999 93.5898913,48.7425274 93.0895187,49.0323838 C92.7456955,49.2317484 92.359443,49.3335516 91.9702643,49.3335516 C91.793232,49.3335516 91.6147365,49.3123426 91.4391672,49.2699246 L88.0023979,48.4371178 C87.4405761,48.2999662 86.9636128,47.9577943 86.6636818,47.475643 C86.4720187,47.1645777 86.3769186,46.8195779 86.3637509,46.4675085 C81.2594542,44.9553024 77.3403196,40.9218658 75.9921651,36.0366131 C75.9724508,38.3679883 74.0967104,40.2574257 71.7920787,40.2574257 C71.7772217,39.5179136 71.8225098,38.9864195 71.7920787,38.3132582 C73.0387262,38.3132582 74.0552235,37.2738024 74.0552235,35.9975815 L74.0590689,32.8135352 C73.4096517,32.2547733 73,31.4413248 73,30.5367205 L73,23.6763154 C73,22.7699446 73.4115185,21.9563149 74.0630936,21.3980793 L74.0630936,19.1885494 C74.0630936,16.4509157 73.285701,13.785813 71.803723,11.4027992 C71.5594794,11.0100567 71.4821777,8.08859232 72.5711003,9.11111848 C73.9544334,10.9557759 74.935389,12.987463 75.4843058,15.1183675 Z M105.757232,21.7260893 L105.757232,13.8047037 C105.757232,11.7269007 105.151826,9.70414716 103.997715,7.89549281 C103.807507,7.59740999 103.747307,5.38008361 104.595321,6.15615818 C106.342667,8.42702212 107.265625,11.0713362 107.265625,13.8047037 L107.265625,21.7413961 C107.265625,21.7413961 107.265625,21.7413961 107.265625,21.7413961 L107.265625,21.7433912 C107.265625,21.7445407 107.265622,21.7456896 107.265617,21.7468378 L107.259646,26.5638455 C107.259646,28.346229 105.792924,29.7955114 103.988646,29.7955114 C103.977076,29.2342381 104.012345,28.8308459 103.988646,28.3199315 C104.959491,28.3199315 105.751103,27.5310077 105.751103,26.5623845 L105.757077,21.7411832 C105.757077,21.7361399 105.757129,21.7311084 105.757232,21.7260893 Z M51.0971591,61.8158264 C51.1553994,61.5848213 51.3019393,61.3910751 51.5085982,61.2681207 C51.7190145,61.1470293 51.9557329,61.1079075 52.1886938,61.1656588 L56.5999215,62.2610702 C56.8310037,62.3206844 57.028269,62.4659941 57.1522643,62.670918 C57.2762596,62.8758419 57.313834,63.1161618 57.2311704,63.4403141 C57.1128112,63.9172279 56.6262235,64.2097102 56.1396358,64.0886188 L51.7265294,62.9913445 C51.4954472,62.9354561 51.3000606,62.7882835 51.1741865,62.5833596 C51.0501912,62.3784357 51.0144956,62.1381158 51.0971591,61.8158264 Z M56.1321209,1 L54.9071974,1 C44.0350616,1 35.1900616,8.99389527 35.1900616,18.8190651 L35.1900616,28.271646 C33.3695848,28.6665902 32,30.2724485 32,32.1950073 L32,41.2340145 C32,43.1807916 33.4034017,44.8071422 35.2595741,45.1741423 C35.9359123,53.0506721 41.5119446,59.8988564 49.1602018,62.2238113 C49.1771103,62.6876845 49.2992269,63.142243 49.5453388,63.5520908 C49.9304758,64.1873549 50.5429376,64.6381875 51.264365,64.8188931 L55.6774714,65.9161675 C55.9029174,65.9720558 56.1321209,66 56.3594457,66 C56.8591844,66 57.3551657,65.865868 57.7966643,65.6031928 C58.4391855,65.2212892 58.893835,64.6158322 59.0967365,63.8035883 C59.278972,63.0863546 59.166249,62.3411768 58.781112,61.7021868 C58.395975,61.0650598 57.785392,60.6142272 57.0620859,60.4353845 L52.6508582,59.3381101 C51.9294308,59.1592674 51.1741865,59.2691812 50.533544,59.6510848 C50.2010111,59.8485569 49.9210823,60.1075062 49.6993936,60.4204809 C42.8326827,58.3246683 37.8165081,52.1974435 37.1589571,45.1350205 C37.9912788,44.9378091 38.725542,44.4881913 39.2721942,43.8723226 C39.2797852,41.5926206 39.3397217,32.466522 39.4979857,29.8304289 C38.9225449,29.0515172 38.070822,28.484959 37.0875659,28.271646 L37.0875659,18.8190651 C37.0875659,10.0334184 45.081507,2.88343699 54.9071974,2.88343699 L56.1321209,2.88343699 C61.065632,2.88343699 65.8338159,4.7594222 69.2117493,8.03075292 C69.585614,8.39402711 70.9119882,7.04525522 70.5381235,6.68198103 C66.8107488,3.07159439 61.5597346,1 56.1321209,1 Z M4.9671485,23.6763154 L4.9671485,30.5367205 C4.9671485,31.4303264 4.21366353,32.159916 3.2875354,32.159916 L3.16024765,32.159916 C2.23411952,32.159916 1.48063455,31.4303264 1.48063455,30.5367205 L1.48063455,23.6763154 C1.48063455,22.7812956 2.23411952,22.0531198 3.16024765,22.0531198 L3.2875354,22.0531198 C4.21366353,22.0531198 4.9671485,22.7812956 4.9671485,23.6763154 Z M14.872184,46.1578571 C14.9175394,45.9825293 15.0316594,45.8354803 15.1925979,45.7421606 C15.3564626,45.650255 15.5408104,45.6205624 15.722232,45.6643943 L19.1575383,46.4957872 C19.3374968,46.541033 19.49112,46.6513198 19.5876831,46.8068525 C19.6842462,46.9623852 19.7135078,47.1447826 19.6491324,47.390807 C19.5569585,47.752774 19.1780214,47.9747615 18.7990843,47.8828559 L15.362315,47.0500491 C15.1823564,47.0076311 15.0301963,46.8959303 14.9321701,46.7403977 C14.835607,46.584865 14.8078085,46.4024676 14.872184,46.1578571 Z M34.265625,21.7413961 C34.265625,21.7413961 34.265625,21.7413961 34.265625,21.7413961 L34.265625,21.7433912 C34.265625,21.7445407 34.2656222,21.7456896 34.2656167,21.7468378 L34.2596456,26.5638455 C34.2596456,28.346229 32.7929236,29.7955114 30.9886465,29.7955114 C30.9770764,29.2342381 31.0123451,28.8308459 30.9886465,28.3199315 C31.959491,28.3199315 32.7511027,27.5310077 32.7511027,26.5623845 L32.7570771,21.7411832 C32.7570771,21.7361399 32.7571288,21.7311084 32.7572316,21.7260893 L32.7572316,13.8047037 C32.7572316,11.7269007 32.1518261,9.70414716 30.9977147,7.89549281 C30.8075065,7.59740999 30.7473067,5.38008361 31.5953207,6.15615818 C33.3426675,8.42702212 34.265625,11.0713362 34.265625,13.8047037 L34.265625,21.7413961 Z M18.793232,0 L17.8393054,0 C9.3724752,0 2.48430579,6.06718838 2.48430579,13.5242733 L2.48430579,20.6985716 C1.06658358,20.9983255 0,22.2171361 0,23.6763154 L0,30.5367205 C0,32.0142809 1.09291898,33.2486448 2.53843966,33.5271897 C3.0651476,39.5053003 7.40756196,44.7029196 13.3637509,46.4675085 C13.3769186,46.8195779 13.4720187,47.1645777 13.6636818,47.475643 C13.9636128,47.9577943 14.4405761,48.2999662 15.0023979,48.4371178 L18.4391672,49.2699246 C18.6147365,49.3123426 18.793232,49.3335516 18.9702643,49.3335516 C19.359443,49.3335516 19.7456955,49.2317484 20.0895187,49.0323838 C20.5898913,48.7425274 20.9439561,48.282999 21.1019684,47.6665241 C21.243887,47.1221597 21.1561023,46.5565863 20.8561714,46.0716071 C20.5562405,45.5880419 20.0807403,45.24587 19.5174554,45.1101324 L16.0821491,44.2773256 C15.5203273,44.141588 14.9321701,44.2250101 14.4332607,44.5148664 C14.1742959,44.6647434 13.9562974,44.8612801 13.7836542,45.0988209 C8.43610553,43.5081458 4.52968829,38.8577187 4.01761113,33.4974971 C4.66579345,33.347818 5.23761135,33.0065681 5.66332454,32.5391375 C5.6692361,30.8088945 5.71591252,23.882389 5.8391629,21.8816531 C5.39103016,21.2904765 4.72773887,20.8604714 3.96201418,20.6985716 L3.96201418,13.5242733 C3.96201418,6.85616324 10.1874094,1.42948671 17.8393054,1.42948671 L18.793232,1.42948671 C22.6352738,1.42948671 26.3485648,2.85331768 28.9791783,5.33618479 C29.2703308,5.61190181 30.3032636,4.58821401 30.0121111,4.31249699 C27.1093651,1.57229398 23.0200632,0 18.793232,0 Z" id="Headsets" fill="#FF9600"></path>
                                    <path d="M7.16304282,16.8267122 C7.44052518,16.5626498 7.88300729,16.5503624 8.17225714,16.8089944 C9.11294249,17.6449949 10.3269645,18.1055037 11.5904198,18.1055037 L25.1932825,18.1055037 C27.9964376,18.1055037 30.2747281,15.883726 30.2747281,13.1518462 L30.2747281,5.41954956 L29.8792622,5.81912949 C28.3802721,7.33101523 26.2808136,8.19960564 24.1246523,8.19960564 L11.5904198,8.19960564 C8.78871864,8.19960564 6.50897423,10.4213834 6.50897423,13.1518462 C6.50897423,13.5415075 6.55549963,13.9297518 6.6470965,14.3052436 C6.74450905,14.689237 6.50170464,15.0760644 6.10623877,15.1695831 C5.96801154,15.2026444 5.82996063,15.1953222 5.70473574,15.1554562 C4.78320314,15.197281 3.95830468,15.9679092 3.95830468,16.911216 C3.95448194,15.7413179 3.95448194,14.8478867 3.95830468,14.2309223 C4.29001277,14.0083639 4.6650068,13.8446339 5.06788134,13.7549622 C5.04863758,13.5548201 5.0390625,13.3534469 5.0390625,13.1518462 C5.0390625,9.63072522 7.97743204,6.7670691 11.5904198,6.7670691 L24.1246523,6.7670691 C25.8853478,6.7670691 27.5980639,6.05859405 28.8222634,4.82443053 L30.4826385,3.14959553 C30.6905488,2.93846996 31.008957,2.87329026 31.2866555,2.98381237 C31.5629,3.09291752 31.7460937,3.35505329 31.7460937,3.64694501 L31.7460937,13.1518462 C31.7460937,13.3560366 31.7362124,13.5580209 31.7168909,13.7573681 C32.092343,13.8420487 32.443374,13.9907626 32.7575791,14.1912313 C32.7608475,14.9043808 32.7586887,15.8110424 32.7511027,16.911216 C32.7511027,16.0825422 32.1734582,15.3871284 31.3998875,15.2019944 C31.1178783,16.0108869 30.6737631,16.74744 30.1053981,17.3746891 C31.1797443,19.2180313 31.7460937,21.2947701 31.7460937,23.4101369 L31.7460937,30.558421 C31.7460937,37.4090938 25.9354447,42.9836885 18.7914199,42.9836885 L17.9937363,42.9836885 C10.8511752,42.9836885 5.0390625,37.4090938 5.0390625,30.558421 L5.0390625,23.4101369 C5.0390625,21.193495 5.66257296,19.0147564 6.84080281,17.1069563 C6.91935817,16.9796125 7.03304124,16.8847576 7.16304282,16.8267122 Z M7.80718272,18.358728 C6.96306566,19.915572 6.51880211,21.6504216 6.51880211,23.4101369 L6.51880211,30.558421 C6.51880211,36.6271625 11.6664225,41.56442 17.9937363,41.56442 L18.7914199,41.56442 C25.1187338,41.56442 30.2678178,36.6271625 30.2678178,30.558421 L30.2678178,23.4101369 C30.2678178,21.6488908 29.8239039,19.9185906 28.9797261,18.3615813 C27.9099085,19.1021986 26.6030183,19.5380402 25.1932825,19.5380402 L11.5904198,19.5380402 C10.2272026,19.5380402 8.91069015,19.1234369 7.80718272,18.358728 Z M41.197961,23.1702321 C41.5542722,22.8223137 42.1224571,22.8061243 42.4938788,23.1468878 C43.7017994,24.2483702 45.2607078,24.8551189 46.8830927,24.8551189 L64.3503345,24.8551189 C67.949826,24.8551189 70.8753463,21.9277896 70.8753463,18.3283693 L70.8753463,8.14059115 L70.3675342,8.66706237 C68.4427024,10.6590652 65.7468177,11.8034867 62.9781217,11.8034867 L46.8830927,11.8034867 C43.2854682,11.8034867 40.3580809,14.730816 40.3580809,18.3283693 C40.3580809,18.8417721 40.4178235,19.353308 40.5354417,19.8480416 C40.6605278,20.3539767 40.3487461,20.8636456 39.8409341,20.9868623 C39.6634384,21.0304226 39.4861692,21.0207752 39.3253697,20.9682492 C38.1420429,21.023356 37.0828025,22.0387063 37.0828025,23.2815711 C37.0778938,21.7401582 37.0778938,20.5630074 37.0828025,19.7501187 C37.5087442,19.4568843 37.9902687,19.2411599 38.5075941,19.1230119 C38.4828835,18.8593123 38.4705882,18.5939908 38.4705882,18.3283693 C38.4705882,13.6890751 42.2437066,9.91603133 46.8830927,9.91603133 L62.9781217,9.91603133 C65.2390056,9.91603133 67.43828,8.98257172 69.0102571,7.35648508 L71.142321,5.14978656 C71.4092957,4.87161559 71.8181591,4.78573731 72.1747477,4.93135701 C72.5294694,5.07510979 72.7647059,5.42048984 72.7647059,5.8050752 L72.7647059,18.3283693 C72.7647059,18.5974028 72.7520174,18.8635295 72.727207,19.1261818 C73.2130083,19.2386075 73.6669694,19.4366968 74.0727927,19.7038982 C74.0611572,20.4311521 74.0638733,20.9789121 74.0727927,21.4152525 C73.9094543,21.5703123 73.7980957,21.6405638 73.604947,21.8967859 C73.2930875,21.4705027 72.8412344,21.1575259 72.3201474,21.0295662 C71.9580233,22.095332 71.3877413,23.0657862 70.6579121,23.8922256 C72.0374647,26.3209427 72.7647059,29.0571744 72.7647059,31.8443007 L72.7647059,41.2626063 C72.7647059,50.2887907 65.3033343,57.6336634 56.1297941,57.6336634 L55.1055,57.6336634 C45.9338392,57.6336634 38.4705882,50.2887907 38.4705882,41.2626063 L38.4705882,31.8443007 C38.4705882,28.9237381 39.2712291,26.0531155 40.7841773,23.5394711 C40.8850491,23.3716878 41.0310279,23.2467105 41.197961,23.1702321 Z M42.0250919,25.1887576 C40.9411732,27.2399957 40.3707007,29.5257671 40.3707007,31.8443007 L40.3707007,41.2626063 C40.3707007,49.258548 46.9806866,55.7636895 55.1055,55.7636895 L56.1297941,55.7636895 C64.2546075,55.7636895 70.8664728,49.258548 70.8664728,41.2626063 L70.8664728,31.8443007 C70.8664728,29.5237502 70.2964493,27.2439729 69.2124527,25.192517 C67.8387151,26.168326 66.1605561,26.7425743 64.3503345,26.7425743 L46.8830927,26.7425743 C45.1326048,26.7425743 43.44209,26.1963087 42.0250919,25.1887576 Z M80.1630428,16.8267122 C80.4405252,16.5626498 80.8830073,16.5503624 81.1722571,16.8089944 C82.1129425,17.6449949 83.3269645,18.1055037 84.5904198,18.1055037 L98.1932825,18.1055037 C100.996438,18.1055037 103.274728,15.883726 103.274728,13.1518462 L103.274728,5.41954956 L102.879262,5.81912949 C101.380272,7.33101523 99.2808136,8.19960564 97.1246523,8.19960564 L84.5904198,8.19960564 C81.7887186,8.19960564 79.5089742,10.4213834 79.5089742,13.1518462 C79.5089742,13.5415075 79.5554996,13.9297518 79.6470965,14.3052436 C79.744509,14.689237 79.5017046,15.0760644 79.1062388,15.1695831 C78.9680115,15.2026444 78.8299606,15.1953222 78.7047357,15.1554562 C77.7832031,15.197281 76.9583047,15.9679092 76.9583047,16.911216 C76.9544819,15.7413179 76.9544819,14.8478867 76.9583047,14.2309223 C77.2900128,14.0083639 77.6650068,13.8446339 78.0678813,13.7549622 C78.0486376,13.5548201 78.0390625,13.3534469 78.0390625,13.1518462 C78.0390625,9.63072522 80.977432,6.7670691 84.5904198,6.7670691 L97.1246523,6.7670691 C98.8853478,6.7670691 100.598064,6.05859405 101.822263,4.82443053 L103.482638,3.14959553 C103.690549,2.93846996 104.008957,2.87329026 104.286655,2.98381237 C104.5629,3.09291752 104.746094,3.35505329 104.746094,3.64694501 L104.746094,13.1518462 C104.746094,13.3560366 104.736212,13.5580209 104.716891,13.7573681 C105.100221,13.8438256 105.458094,13.9970316 105.777309,14.2039186 C105.774443,15.020467 105.765708,15.9228995 105.751103,16.911216 C105.751103,16.0825422 105.173458,15.3871284 104.399888,15.2019944 C104.117878,16.0108869 103.673763,16.74744 103.105398,17.3746891 C104.179744,19.2180313 104.746094,21.2947701 104.746094,23.4101369 L104.746094,30.558421 C104.746094,37.4090938 98.9354447,42.9836885 91.7914199,42.9836885 L90.9937363,42.9836885 C83.8511752,42.9836885 78.0390625,37.4090938 78.0390625,30.558421 L78.0390625,23.4101369 C78.0390625,21.193495 78.662573,19.0147564 79.8408028,17.1069563 C79.9193582,16.9796125 80.0330412,16.8847576 80.1630428,16.8267122 Z M80.8071827,18.358728 C79.9630657,19.915572 79.5188021,21.6504216 79.5188021,23.4101369 L79.5188021,30.558421 C79.5188021,36.6271625 84.6664225,41.56442 90.9937363,41.56442 L91.7914199,41.56442 C98.1187338,41.56442 103.267818,36.6271625 103.267818,30.558421 L103.267818,23.4101369 C103.267818,21.6488908 102.823904,19.9185906 101.979726,18.3615813 C100.909908,19.1021986 99.6030183,19.5380402 98.1932825,19.5380402 L84.5904198,19.5380402 C83.2272026,19.5380402 81.9106901,19.1234369 80.8071827,18.358728 Z M91.3941285,38.5876295 C90.3621086,38.5876295 89.3528539,38.3373894 88.4786724,37.8645675 C88.1189831,37.6696436 88.0097104,37.2587232 88.2328088,36.9465817 C88.4589426,36.6344401 88.9324576,36.5409294 89.2921469,36.7345361 C90.5503005,37.4154525 92.2349212,37.4167695 93.4945925,36.7358532 C93.8557994,36.5435635 94.3277968,36.6383913 94.5524129,36.9492158 C94.7755113,37.2613573 94.6662386,37.6722777 94.3050316,37.8672016 C93.4323678,38.3387065 92.4261484,38.5876295 91.3941285,38.5876295 Z M85.3457031,29.7955114 C84.9289348,29.7955114 84.5898438,29.4912871 84.5898438,29.1157183 L84.5898438,27.0561473 C84.5898438,26.6805785 84.9289348,26.3763543 85.3457031,26.3763543 C85.7624714,26.3763543 86.1015625,26.6805785 86.1015625,27.0561473 L86.1015625,29.1157183 C86.1015625,29.4912871 85.7624714,29.7955114 85.3457031,29.7955114 Z M97.944107,29.7955114 C97.5269265,29.7955114 97.1875,29.4912871 97.1875,29.1157183 L97.1875,27.0561473 C97.1875,26.6805785 97.5269265,26.3763543 97.944107,26.3763543 C98.3612876,26.3763543 98.6992187,26.6805785 98.6992187,27.0561473 L98.6992187,29.1157183 C98.6992187,29.4912871 98.3612876,29.7955114 97.944107,29.7955114 Z M97.898101,17.0957852 C97.5062874,17.0957852 97.1875,16.7880586 97.1875,16.408166 C97.1875,16.0282734 97.5062874,15.7205468 97.898101,15.7205468 C99.7799298,15.7205468 101.312075,14.235017 101.312075,12.4104433 C101.312075,12.0305507 101.629458,11.7228241 102.021272,11.7228241 C102.413086,11.7228241 102.730469,12.0305507 102.730469,12.4104433 C102.730469,14.9934406 100.563557,17.0957852 97.898101,17.0957852 Z M55.6196379,51.8415842 C54.2944359,51.8415842 52.9984663,51.5118775 51.8759423,50.8889053 C51.4140704,50.6320812 51.2737549,50.0906681 51.5602324,49.6794024 C51.8506075,49.2681366 52.4586414,49.1449305 52.9205133,49.4000193 C54.5360904,50.2971686 56.6992877,50.2989039 58.3168137,49.4017546 C58.7806344,49.1484011 59.3867194,49.2733425 59.6751457,49.682873 C59.9616232,50.0941387 59.8213077,50.6355518 59.357487,50.8923759 C58.2369118,51.5136128 56.9448399,51.8415842 55.6196379,51.8415842 Z M47.8529412,40.2574257 C47.3177749,40.2574257 46.8823529,39.8565916 46.8823529,39.3617565 L46.8823529,36.6481445 C46.8823529,36.1533094 47.3177749,35.7524752 47.8529412,35.7524752 C48.3881074,35.7524752 48.8235294,36.1533094 48.8235294,36.6481445 L48.8235294,39.3617565 C48.8235294,39.8565916 48.3881074,40.2574257 47.8529412,40.2574257 Z M64.0303718,40.2574257 C63.4946762,40.2574257 63.0588235,39.8565916 63.0588235,39.3617565 L63.0588235,36.6481445 C63.0588235,36.1533094 63.4946762,35.7524752 64.0303718,35.7524752 C64.5660674,35.7524752 65,36.1533094 65,36.6481445 L65,39.3617565 C65,39.8565916 64.5660674,40.2574257 64.0303718,40.2574257 Z M63.9712961,23.5247525 C63.4681739,23.5247525 63.0588235,23.1193037 63.0588235,22.6187717 C63.0588235,22.1182398 63.4681739,21.712791 63.9712961,21.712791 C66.3877256,21.712791 68.355132,19.7555138 68.355132,17.3515253 C68.355132,16.8509934 68.762679,16.4455446 69.2658013,16.4455446 C69.7689235,16.4455446 70.1764706,16.8509934 70.1764706,17.3515253 C70.1764706,20.7547836 67.3939701,23.5247525 63.9712961,23.5247525 Z M18.3941285,38.5876295 C17.3621086,38.5876295 16.3528539,38.3373894 15.4786724,37.8645675 C15.1189831,37.6696436 15.0097104,37.2587232 15.2328088,36.9465817 C15.4589426,36.6344401 15.9324576,36.5409294 16.2921469,36.7345361 C17.5503005,37.4154525 19.2349212,37.4167695 20.4945925,36.7358532 C20.8557994,36.5435635 21.3277968,36.6383913 21.5524129,36.9492158 C21.7755113,37.2613573 21.6662386,37.6722777 21.3050316,37.8672016 C20.4323678,38.3387065 19.4261484,38.5876295 18.3941285,38.5876295 Z M12.3457031,29.7955114 C11.9289348,29.7955114 11.5898437,29.4912871 11.5898437,29.1157183 L11.5898437,27.0561473 C11.5898437,26.6805785 11.9289348,26.3763543 12.3457031,26.3763543 C12.7624714,26.3763543 13.1015625,26.6805785 13.1015625,27.0561473 L13.1015625,29.1157183 C13.1015625,29.4912871 12.7624714,29.7955114 12.3457031,29.7955114 Z M24.944107,29.7955114 C24.5269265,29.7955114 24.1875,29.4912871 24.1875,29.1157183 L24.1875,27.0561473 C24.1875,26.6805785 24.5269265,26.3763543 24.944107,26.3763543 C25.3612876,26.3763543 25.6992187,26.6805785 25.6992187,27.0561473 L25.6992187,29.1157183 C25.6992187,29.4912871 25.3612876,29.7955114 24.944107,29.7955114 Z M24.898101,17.0957852 C24.5062874,17.0957852 24.1875,16.7880586 24.1875,16.408166 C24.1875,16.0282734 24.5062874,15.7205468 24.898101,15.7205468 C26.7799298,15.7205468 28.3120754,14.235017 28.3120754,12.4104433 C28.3120754,12.0305507 28.6294585,11.7228241 29.0212721,11.7228241 C29.4130857,11.7228241 29.7304687,12.0305507 29.7304687,12.4104433 C29.7304687,14.9934406 27.563557,17.0957852 24.898101,17.0957852 Z" fill="#008CFD"></path>
                                </g>
                            </g>
                        </g>
                    </g>
                </g>
            </g>
        </g>
    </g>
</svg>