<svg viewBox="0 0 34 30" xmlns="http://www.w3.org/2000/svg" xmlns:xlink="http://www.w3.org/1999/xlink"><defs><path d="M32.193 27.922L18 3.08 3.808 27.922h28.385zm2.67 1.559a1.025 1.025 0 0 1-.89.519H2.028c-.368 0-.707-.197-.89-.52a1.046 1.046 0 0 1 0-1.038L17.11.482c.367-.643 1.414-.643 1.78 0l15.973 27.96c.183.322.183.717 0 1.039zm-17.626-8.259h1.527l.316-10.902h-2.16l.316 10.902zm2.09 3.249c0 .794-.518 1.407-1.327 1.407-.786 0-1.326-.613-1.326-1.407 0-.819.563-1.409 1.326-1.409.81 0 1.326.59 1.326 1.409z" id="a"/></defs><g transform="translate(-1)" fill="none" fill-rule="evenodd"><path d="M0 0h36v30H0z"/><mask id="b" fill="#fff"><use xlink:href="#a"/></mask><g mask="url(#b)" fill="#ff9600"><path d="M0 0h36v30H0z"/></g></g></svg>