<?xml version="1.0" encoding="UTF-8"?>
<svg width="75px" height="76px" viewBox="0 0 75 76" version="1.1" xmlns="http://www.w3.org/2000/svg" xmlns:xlink="http://www.w3.org/1999/xlink">
    <!-- Generator: Sketch 49 (51002) - http://www.bohemiancoding.com/sketch -->
    <title>Icon - Alarm</title>
    <desc>Created with Sketch.</desc>
    <defs></defs>
    <g id="Page-Updates---032018" stroke="none" stroke-width="1" fill="none" fill-rule="evenodd">
        <g id="Home---768" transform="translate(-103.000000, -1525.000000)">
            <g id="Section---Explore..." transform="translate(50.000000, 1319.000000)">
                <g id="Cards" transform="translate(0.000000, 150.768707)">
                    <g id="Card" transform="translate(30.000000, 22.000000)">
                        <g id="Icon" transform="translate(0.000000, 10.000000)">
                            <g id="Icon---Alarm" transform="translate(23.000000, 24.000000)">
                                <path d="M27.2733022,66.8395318 C27.8444708,67.0479199 28.1406323,67.687333 27.934377,68.2644078 C27.7721933,68.7168059 27.3491054,69 26.8978117,69 C26.7726482,69 26.6457218,68.9786269 26.5240841,68.9323184 C13.4965032,64.1714516 4.66983243,51.742971 4.26966181,37.8076842 C1.8333808,37.2769179 0,35.0861711 0,32.4679615 C0,29.4525677 2.42746669,27 5.41199908,27 C8.39653147,27 10.8239982,29.4525677 10.8239982,32.4679615 C10.8239982,35.1164497 8.95007144,37.3267885 6.4732445,37.8272762 C6.88222945,50.8203639 15.1218658,62.3992621 27.2733022,66.8395318 Z M49.7462637,72.7890082 L29.2552931,72.7890082 L29.2552931,63.7133291 C32.5259153,64.9161087 35.9570034,65.563487 39.4998769,65.563487 C43.0427504,65.563487 46.4738386,64.9161087 49.7462637,63.7133291 L49.7462637,72.7890082 Z M51.9405014,61.8171826 C51.9657432,61.9126974 51.998197,62.0082123 52,62.1037271 C52,62.1054959 52,62.1072647 52,62.1090335 L52,73.8945041 C52,74.5047378 51.4969661,75 50.8731318,75 L28.128425,75 C27.5063938,75 27.0015568,74.5047378 27.0015568,73.8945041 L27.0015568,62.1550221 C26.9943449,61.9887555 27.0105718,61.8189514 27.0844943,61.6579912 C27.2702022,61.2440935 27.6830867,61.0017688 28.1158041,61.0017688 C28.11941,61.0017688 28.124819,61 28.128425,61 C28.128425,61 28.128425,61 28.130228,61 C28.1644848,61 28.2023475,61.0176879 28.2384073,61.0212255 C28.3610106,61.0336071 28.4800078,61.0530638 28.5881872,61.1008212 C35.4792113,64.0865445 43.5313604,64.0865445 50.4187786,61.0990524 C50.4205816,61.0972836 50.4223846,61.0972836 50.4241876,61.0972836 C50.4854892,61.0707517 50.5576088,61.0689829 50.6243194,61.0530638 C50.7054539,61.0336071 50.7865884,61.0053064 50.8677229,61.0035376 C50.8695259,61.0035376 50.8713289,61.0035376 50.8731318,61.0035376 C50.9037827,61.0035376 50.9290245,61.0176879 50.9614783,61.0212255 C51.0750666,61.0300695 51.1904579,61.0442198 51.2968343,61.0866709 C51.3545299,61.111434 51.3996046,61.1503474 51.4518913,61.1839545 C51.5222079,61.2246368 51.5961305,61.2600126 51.6574321,61.3183828 C51.7169307,61.3749842 51.7529905,61.4457359 51.7980652,61.5129501 C51.832322,61.5642451 51.8773967,61.6031586 51.9044416,61.6615287 C51.9062446,61.6650663 51.9062446,61.6686039 51.9080476,61.6721415 C51.9278804,61.7181301 51.9260774,61.7711939 51.9405014,61.8171826 Z M39.4990903,11 C54.1114353,11 66,22.662467 66,36.9991074 C66,51.3357479 54.1114353,63 39.4990903,63 C24.8885647,63 13,51.3357479 13,36.9991074 C13,22.662467 24.8885647,11 39.4990903,11 Z M39.4990903,60.7685468 C26.1403756,60.7685468 15.2743658,50.1057709 15.2743658,36.9991074 C15.2743658,23.892444 26.1403756,13.2314532 39.4990903,13.2314532 C52.8578049,13.2314532 63.7256342,23.892444 63.7256342,36.9991074 C63.7256342,50.1057709 52.8578049,60.7685468 39.4990903,60.7685468 Z M2.20358269,32.4679615 C2.20358269,30.6797422 3.64208146,29.2263687 5.41199908,29.2263687 C7.18191669,29.2263687 8.62041547,30.6797422 8.62041547,32.4679615 C8.62041547,34.2561808 7.18191669,35.7095543 5.41199908,35.7095543 C3.64208146,35.7095543 2.20358269,34.2561808 2.20358269,32.4679615 Z M39.4991044,40.7605863 C41.2975085,40.7605863 42.760951,39.2986971 42.760951,37.5 C42.760951,35.7013029 41.2975085,34.2394137 39.4991044,34.2394137 C37.7007002,34.2394137 36.239049,35.7013029 36.239049,37.5 C36.239049,39.2986971 37.7007002,40.7605863 39.4991044,40.7605863 Z M39.4991044,32 C36.4683276,32 34,34.4669381 34,37.5 C34,40.5330619 36.4683276,43 39.4991044,43 C42.5334636,43 45,40.5330619 45,37.5 C45,34.4669381 42.5334636,32 39.4991044,32 Z" id="Bell" fill="#008CFD"></path>
                                <path d="M66.4379644,19.355703 C66.7513649,19.8601837 66.5963866,20.5230678 66.0918462,20.8364312 C65.9162041,20.9466249 65.7181763,21 65.5253144,21 C65.1654204,21 64.8141363,20.8192134 64.6109425,20.490354 C62.0779085,16.414908 58.585731,12.9214227 54.509802,10.3904106 C54.0035396,10.0770472 53.8485613,9.41416305 54.1619618,8.90968241 C54.4753624,8.40175822 55.140047,8.24852007 55.6445875,8.56360525 C60.0011994,11.266795 63.7327322,14.9996074 66.4379644,19.355703 Z M70.6279011,16.7343066 C70.9609172,17.2704577 70.7962389,17.9749566 70.25829,18.3079925 C70.0716546,18.425104 69.8648919,18.48 69.6562995,18.48 C69.27388,18.48 68.9006093,18.2896938 68.6846978,17.9401891 C65.5613003,12.908054 61.2522195,8.59688659 56.2222139,5.47513294 C55.6842649,5.14209709 55.5195867,4.43759817 55.8507729,3.89961718 C56.1856187,3.36163618 56.8937352,3.20060786 57.4280246,3.53181384 C62.7544511,6.8383841 67.3196981,11.4039031 70.6279011,16.7343066 Z M74.4890236,15.7972322 C74.3124059,15.9080528 74.1132781,15.96 73.919345,15.96 C73.5574518,15.96 73.2042165,15.7799165 72.9981625,15.4491861 C69.6303056,10.0207063 64.9793731,5.37143407 59.5509764,2.00179396 C59.0436334,1.68664776 58.8877943,1.01999234 59.2029357,0.512641592 C59.5198086,0.00355927294 60.1864538,-0.152282253 60.6920652,0.162863944 C66.4027039,3.70739288 71.2943212,8.59908524 74.8370643,14.3080798 C75.1522057,14.8154306 74.9963666,15.4838176 74.4890236,15.7972322 Z M11.5620356,19.355703 C14.2672678,14.9996074 17.9988006,11.266795 22.3554125,8.56360525 C22.859953,8.24852007 23.5246376,8.40175822 23.8380382,8.90968241 C24.1514387,9.41416305 23.9964604,10.0770472 23.490198,10.3904106 C19.414269,12.9214227 15.9220915,16.414908 13.3890575,20.490354 C13.1858637,20.8192134 12.8345796,21 12.4746856,21 C12.2818237,21 12.0837959,20.9466249 11.9081538,20.8364312 C11.4036134,20.5230678 11.2486351,19.8601837 11.5620356,19.355703 Z M7.37209886,16.7343066 C10.6803019,11.4039031 15.2455489,6.8383841 20.5719754,3.53181384 C21.1062648,3.20060786 21.8143813,3.36163618 22.1492271,3.89961718 C22.4804133,4.43759817 22.3157351,5.14209709 21.7777861,5.47513294 C16.7477805,8.59688659 12.4386997,12.908054 9.3153022,17.9401891 C9.09939072,18.2896938 8.72612002,18.48 8.34370053,18.48 C8.13510808,18.48 7.92834539,18.425104 7.74171004,18.3079925 C7.2037611,17.9749566 7.03908285,17.2704577 7.37209886,16.7343066 Z M3.51097642,15.7972322 C3.00363345,15.4838176 2.84779431,14.8154306 3.16293568,14.3080798 C6.70567875,8.59908524 11.5972961,3.70739288 17.3079348,0.162863944 C17.8135462,-0.152282253 18.4801914,0.00355927294 18.7970643,0.512641592 C19.1122057,1.01999234 18.9563666,1.68664776 18.4490236,2.00179396 C13.0206269,5.37143407 8.36969444,10.0207063 5.00183751,15.4491861 C4.79578354,15.7799165 4.44254816,15.96 4.08065505,15.96 C3.8867219,15.96 3.68759411,15.9080528 3.51097642,15.7972322 Z" id="Noise" fill="#FF9600"></path>
                            </g>
                        </g>
                    </g>
                </g>
            </g>
        </g>
    </g>
</svg>