<?xml version="1.0" encoding="UTF-8"?>
<svg width="36px" height="26px" viewBox="0 0 36 26" version="1.1" xmlns="http://www.w3.org/2000/svg" xmlns:xlink="http://www.w3.org/1999/xlink">
    <!-- Generator: Sketch 49.2 (51160) - http://www.bohemiancoding.com/sketch -->
    <title>Icon - Menu</title>
    <desc>Created with Sketch.</desc>
    <defs></defs>
    <g id="Symbols" stroke="none" stroke-width="1" fill="none" fill-rule="evenodd">
        <g id="Banner/3-768/1-Header-Urgency" transform="translate(-714.000000, -17.000000)">
            <g id="Icon---Menu" transform="translate(714.000000, 15.000000)">
                <rect id="Block" fill-opacity="0" fill="#E7EAEC" x="0" y="0" width="36" height="30"></rect>
                <path d="M0,2 L36,2 L36,5 L0,5 L0,2 Z M0,13 L36,13 L36,16 L0,16 L0,13 Z M0,24 L36,24 L36,27 L0,27 L0,24 Z" id="Blue" fill="#0068BD"></path>
                <path d="M0,25 L36,25 L36,28 L0,28 L0,25 Z M0,14 L36,14 L36,17 L0,17 L0,14 Z M0,3 L36,3 L36,6 L0,6 L0,3 Z" id="White" fill="#FFFFFF"></path>
            </g>
        </g>
    </g>
</svg>