<?xml version="1.0" encoding="UTF-8"?>
<svg width="24px" height="30px" viewBox="0 0 24 30" version="1.1" xmlns="http://www.w3.org/2000/svg" xmlns:xlink="http://www.w3.org/1999/xlink">
    <!-- Generator: Sketch 49 (51002) - http://www.bohemiancoding.com/sketch -->
    <title>Icon/Security/Shield Check/1 Outline</title>
    <desc>Created with Sketch.</desc>
    <defs>
        <path d="M24.8414581,10.3912802 C24.9353613,10.498972 24.9855141,10.617433 24.9876483,10.7427471 C24.9897824,10.8592501 24.9524346,10.9698789 24.8766718,11.0726757 L24.8681352,11.0834448 L16.95786,20.7825605 C16.8746276,20.8677349 16.7199008,21.0263355 16.4830087,21.0312306 L16.4712708,21.0312306 C16.2269091,21.0312306 16.0647127,20.8882942 15.9772121,20.8109519 C15.8929126,20.7375257 12.8848099,18.188167 11.3065963,16.8498515 L11.1774795,16.7362856 C11.0953142,16.6344679 11.053698,16.5297131 11.0515638,16.4151682 C11.0494297,16.2996443 11.0867775,16.1909735 11.1625403,16.0871977 L11.2457727,16.0010443 C11.6224524,15.6202069 12.3139213,14.9270633 12.5518804,14.6881833 L12.6329786,14.6079039 C12.7375526,14.4992331 12.874139,14.3592338 13.121702,14.3543387 L13.1334399,14.3543387 C13.3746003,14.3543387 13.5314613,14.4992331 13.6168278,14.5775544 C13.7032614,14.6539177 15.4191284,16.1106941 16.0604444,16.6550272 L22.168419,9.1547825 C22.3178104,9.02457331 22.457598,8.97170643 22.600587,8.96876938 C22.7414417,8.96876938 22.8737598,9.01086708 22.9900717,9.09506249 L24.8414581,10.3912802 Z M27.8548963,18.4339001 L27.8495609,18.5278857 C27.8026093,19.266064 27.6350775,19.9934732 27.3512338,20.6875959 L27.2957456,20.8227001 L27.0215056,21.3337467 C25.0847527,24.9345691 20.3917282,27.1030904 18.3600051,27.9019678 C16.2994707,27.1784747 11.525348,25.1832392 9.4328012,21.6607382 L9.15429293,21.1927683 L9.06892641,21.0145873 C8.75520444,20.3302549 8.55672728,19.6106778 8.47989742,18.8911007 L8.47029368,18.787325 C8.45428746,18.6228502 8.44254956,18.4515224 8.43828124,18.2821525 L8.17364502,5.84864406 C12.6319115,5.3258493 16.1692867,3.43438958 17.8168606,2.40446431 C19.5049835,3.37466958 23.1202557,5.13787815 27.5998638,5.50011422 L27.8645,17.9336227 C27.8687683,18.1078876 27.8634329,18.2792155 27.8548963,18.4339001 L27.8548963,18.4339001 Z M29.6934777,3.6145286 L29.0276189,3.60669647 C23.4094347,3.54306041 19.0098577,0.822373788 18.1850037,0.277061645 L17.7656407,0 L17.3590826,0.291746892 C16.5577044,0.866429527 12.2776405,3.74277975 6.66585886,4.0080932 L6,4.03942173 L6.30411823,18.3203342 C6.30945364,18.5396338 6.32439278,18.7530594 6.34360024,18.9576739 L6.35427106,19.0663447 C6.45350964,19.9973893 6.70534087,20.9078746 7.10122811,21.7733251 L7.5173899,22.6377966 L7.55900608,22.5986359 C10.2053682,27.0521816 16.2749278,29.3107724 18.1615279,29.9206997 L18.4048225,30 L18.6438487,29.9128675 C20.5048389,29.2344092 26.4858307,26.7535816 28.9347828,22.2001762 L28.9924052,22.248148 L29.3498775,21.3748654 C29.7084169,20.4966877 29.9207661,19.5783703 29.9805226,18.6424306 L29.985858,18.5396338 C29.9965289,18.3271873 30.0029314,18.1127827 29.998663,17.894462 L29.6934777,3.6145286 Z" id="path-1"></path>
    </defs>
    <g id="Symbols" stroke="none" stroke-width="1" fill="none" fill-rule="evenodd">
        <g id="Banner/1-1600/1-Header-Urgency" transform="translate(-269.000000, -16.000000)">
            <g id="Column">
                <g id="Content" transform="translate(263.000000, 0.000000)">
                    <g id="Icon/Security/Shield-Check/1-Outline" transform="translate(0.000000, 16.000000)">
                        <g>
                            <rect id="Box" x="0" y="0" width="36" height="30"></rect>
                            <mask id="mask-2" fill="white">
                                <use xlink:href="#path-1"></use>
                            </mask>
                            <g></g>
                            <g id="1-Color/3-Neutrals/8-White" mask="url(#mask-2)" fill="#FFFFFF">
                                <polygon id="#FFFFFF" points="0 0 36 0 36 29.9079755 0 29.9079755"></polygon>
                            </g>
                        </g>
                    </g>
                </g>
            </g>
        </g>
    </g>
</svg>