<?xml version="1.0" encoding="UTF-8"?>
<svg width="74px" height="75px" viewBox="0 0 74 75" version="1.1" xmlns="http://www.w3.org/2000/svg" xmlns:xlink="http://www.w3.org/1999/xlink">
    <!-- Generator: Sketch 49 (51002) - http://www.bohemiancoding.com/sketch -->
    <title>Icon - Bank</title>
    <desc>Created with Sketch.</desc>
    <defs></defs>
    <g id="Page-Updates---032018" stroke="none" stroke-width="1" fill="none" fill-rule="evenodd">
        <g id="Home---768" transform="translate(-105.000000, -1951.000000)">
            <g id="Section---Explore..." transform="translate(50.000000, 1319.000000)">
                <g id="Cards" transform="translate(0.000000, 150.768707)">
                    <g id="Card" transform="translate(30.000000, 434.000000)">
                        <g id="Icon" transform="translate(0.000000, 23.000000)">
                            <g id="Icon---Bank" transform="translate(25.000000, 25.000000)">
                                <path d="M66.1937524,23.4387858 C66.651914,22.9902892 67.3943056,22.9923752 67.8503461,23.4387858 C68.563042,24.1396921 68.866362,25.082578 68.7921228,26.0004316 L68.5439519,26.025464 L68.5375886,26.025464 C67.650961,26.025464 66.8194824,25.687527 66.1937524,25.0700619 C65.7377119,24.6215652 65.7377119,23.8893684 66.1937524,23.4387858 Z M3.1922837,34.5260394 C3.6568087,35.581571 4.24435859,38.2329161 4.24435859,42.219321 C4.24435859,46.2057258 3.6568087,48.8570709 3.1922837,49.9146885 C2.73200093,48.8570709 2.14232992,46.2057258 2.14232992,42.219321 C2.14232992,38.2329161 2.73200093,35.583657 3.1922837,34.5260394 Z M70.5653781,27.7443533 C70.295996,28.401453 69.8951046,29.008488 69.366946,29.5258236 L66.9403862,31.9143289 C68.5651631,35.2227737 69.4517908,38.8587254 69.4517908,42.6553014 C69.4517908,49.5225147 66.5055568,56.0288448 61.1730643,61.0499209 L61.1730643,64.0266868 C61.1730643,69.525464 56.6253858,74 51.0341168,74 C50.4423247,74 49.9608307,73.526471 49.9608307,72.9444684 L49.9608307,67.7585959 C46.3019009,69.0394188 42.4435859,69.7278089 38.4452771,69.7278089 C34.370608,69.7278089 30.4359327,69.0185585 26.7112482,67.6834988 C25.1967695,71.4446123 21.4975384,74 17.3062078,74 C16.7144156,74 16.2350428,73.526471 16.2350428,72.9444684 L16.2350428,61.5151057 C13.3333524,58.9075673 11.0467864,55.7826931 9.54927655,52.4095814 L3.1922837,52.4095814 C0.229080823,52.4095814 0,44.6099122 0,42.219321 C0,39.8287297 0.229080823,32.0311466 3.1922837,32.0311466 L9.93956239,32.0311466 C11.0679976,29.7239965 12.5485384,27.5691267 14.3642161,25.6145159 L15.9083905,16.8573587 L15.916875,16.8364983 L15.9189961,16.815638 L15.9995986,16.6278953 L16.07808,16.4547547 L16.2456484,16.2837002 L16.3665522,16.1689685 L16.578664,16.0750971 L16.7441113,16.0104302 L16.9668288,16.0041721 L17.149245,16 L17.1704562,16.0083441 L17.1937885,16.0083441 L25.9582511,17.8795137 C27.1460776,17.422673 28.3742053,17.0200691 29.6171809,16.6988203 C30.189883,16.5486261 30.7774329,16.8865631 30.9280323,17.4477054 C31.0786317,18.0130197 30.7371316,18.5887642 30.1644295,18.7368724 C28.8938794,19.0664653 27.6381771,19.4753273 26.4355028,19.9530283 L26.4121705,19.9551144 L26.0346114,20.0302115 L25.8055305,20.0051791 L17.8322452,18.302978 L16.4280646,26.2611854 L16.3920056,26.3571429 L16.3326143,26.5177672 L16.2053471,26.7201122 L16.1544403,26.8035534 C14.2348278,28.8186592 12.701259,31.0674004 11.5961561,33.4851101 L11.218597,33.9273486 L11.1273889,33.9878435 C10.9704261,34.0754568 10.7986155,34.1380377 10.6055937,34.1380377 L5.33037138,34.1380377 C6.28063258,36.6266724 6.38880963,40.6235074 6.38880963,42.219321 C6.38880963,43.8151345 6.28063258,47.8140555 5.33037138,50.3006042 L10.2259134,50.3006042 L10.2386401,50.3026903 L10.4125719,50.3381528 C10.7752832,50.4028197 11.0807243,50.6301971 11.2164759,50.9577039 L11.2228392,50.9660481 C12.6397465,54.4392893 14.9899461,57.6642929 18.0167825,60.2864336 L18.0358726,60.311466 L18.1779876,60.4971227 L18.2798013,60.6452309 L18.3264659,60.8162854 L18.3731305,61.0457488 L18.3794938,61.0770393 L18.3794938,71.8200978 C21.5314763,71.4008056 24.1871169,69.1562365 25.0292011,66.0772551 L25.0567756,66.0209322 L25.0695023,65.9562653 L25.152226,65.8352755 L25.2688875,65.6600489 L25.421608,65.5265429 L25.5870553,65.4159833 L25.7928038,65.3471443 L25.9730989,65.3116818 L26.2085431,65.326284 L26.3421736,65.3325421 L26.3973227,65.3596605 L26.4651985,65.3721767 C34.0757725,68.3802331 43.0417414,68.3531147 50.626862,65.2929075 L50.8792751,65.2428428 L51.0341168,65.2136383 L51.0362379,65.2136383 L51.4477349,65.2970796 L51.5877288,65.3888649 L51.789235,65.5202849 L52.0225581,65.8623939 L52.0246792,65.866566 L52.0628594,66.0668249 L52.1052817,66.2691699 L52.1052817,71.8221839 C56.0081402,71.3048482 59.0286133,68.0068335 59.0286133,64.0266868 L59.0286133,60.6055963 C59.0286133,60.2926917 59.1707282,60.0235937 59.3892035,59.8295929 C64.4947363,55.1714861 67.3073397,49.0740181 67.3073397,42.6553014 C67.3073397,38.9525967 66.3676841,35.4230327 64.6835158,32.2293195 L64.6071556,32.0916415 C61.2451824,25.825205 54.9518231,20.9105165 46.8915719,18.780679 C46.3209909,18.6304848 45.981612,18.0505683 46.1343325,17.489426 C46.2891742,16.9261977 46.8809663,16.5924327 47.4494261,16.742627 C55.6199755,18.9058409 62.1233255,23.7412603 65.8819479,29.9722342 L67.8227716,28.063516 C66.6370662,27.9133218 65.5362056,27.4064163 64.6771525,26.5594878 C63.3853912,25.2890951 63.3853912,23.2218386 64.6771525,21.9493598 C65.9710349,20.676881 68.0730636,20.676881 69.366946,21.9493598 C70.2259991,22.7921162 70.7393098,23.8726802 70.8941515,25.0366854 C72.1668227,23.7370882 72.1625805,21.7449288 70.8686981,20.4766221 C70.4487166,20.063588 70.4465954,19.3960581 70.866577,18.9851101 C71.2844373,18.572076 71.9631953,18.5699899 72.3831769,18.983024 C74.5382335,21.0920012 74.5382335,24.4213063 72.3874191,26.5594878 C71.8592605,27.0809955 71.2398939,27.4773414 70.5653781,27.7443533 Z M21.0002826,31.500989 C21.0002826,32.3277762 20.3277762,33.0002826 19.500989,33.0002826 C18.6742018,33.0002826 18.0016954,32.3277762 18.0016954,31.500989 C18.0016954,30.6742018 18.6742018,29.9997174 19.500989,29.9997174 C20.3277762,29.9997174 21.0002826,30.6742018 21.0002826,31.500989 Z M16,31.500989 C16,29.5705001 17.5705001,28 19.500989,28 C21.4294999,28 23,29.5705001 23,31.500989 C23,33.4294999 21.4294999,35 19.500989,35 C17.5705001,35 16,33.4294999 16,31.500989 Z M29,22 C29,21.4475248 29.473561,21 30.0581782,21 L44.9418218,21 C45.526439,21 46,21.4475248 46,22 C46,22.5524752 45.526439,23 44.9418218,23 L30.0581782,23 C29.473561,23 29,22.5524752 29,22 Z" id="Piggy" fill="#008CFD"></path>
                                <path d="M38.5,20.8380085 C33.3492476,20.8380085 29.1598551,16.648616 29.1598551,11.5 C29.1598551,6.34924763 33.3492476,2.15771874 38.5,2.15771874 C43.648616,2.15771874 47.8401449,6.34924763 47.8401449,11.5 C47.8401449,16.648616 43.648616,20.8380085 38.5,20.8380085 Z M38.5,0 C32.1592978,0 27,5.15929779 27,11.5 C27,17.8407022 32.1592978,23 38.5,23 C44.8407022,23 50,17.8407022 50,11.5 C50,5.15929779 44.8407022,0 38.5,0 Z M38.5,7.67406685 C39.2682927,7.67406685 39.895003,8.29409612 39.895003,9.0634301 C39.895003,9.64198585 40.3655562,10.1085631 40.9485425,10.1085631 C41.5294468,10.1085631 42,9.64198585 42,9.0634301 C42,7.50817273 40.9651993,6.2038302 39.5514575,5.75591608 L39.5514575,4.04928031 C39.5514575,3.46865089 39.0809042,3 38.5,3 C37.9170137,3 37.4464604,3.46865089 37.4464604,4.04928031 L37.4464604,5.75591608 C36.0327186,6.2038302 35,7.50817273 35,9.0634301 C35,10.9836545 36.5698989,12.5472066 38.5,12.5472066 C39.2682927,12.5472066 39.895003,13.1713833 39.895003,13.9365699 C39.895003,14.7038302 39.2682927,15.3259332 38.5,15.3259332 C37.7296252,15.3259332 37.104997,14.7038302 37.104997,13.9365699 C37.104997,13.3580141 36.6323617,12.8872896 36.0514575,12.8872896 C35.4705532,12.8872896 35,13.3580141 35,13.9365699 C35,15.4918273 36.0327186,16.7961698 37.4464604,17.2440839 L37.4464604,18.9507197 C37.4464604,19.5292754 37.9170137,20 38.5,20 C39.0809042,20 39.5514575,19.5292754 39.5514575,18.9507197 L39.5514575,17.2440839 C40.9651993,16.7961698 42,15.4918273 42,13.9365699 C42,12.0142718 40.4301011,10.4507197 38.5,10.4507197 C37.7296252,10.4507197 37.104997,9.82861674 37.104997,9.0634301 C37.104997,8.29409612 37.7296252,7.67406685 38.5,7.67406685" id="Coin" fill="#FF9600"></path>
                            </g>
                        </g>
                    </g>
                </g>
            </g>
        </g>
    </g>
</svg>