<svg id="Layer_1" xmlns="http://www.w3.org/2000/svg" viewBox="0 0 18.6 17.8"><style>.st0{fill:#b70d12}</style><title>close button@3x</title><path class="st0" d="M11.1 8.9l6.6-6.3c.2-.2.2-.4 0-.6L16.5.9c-.2-.2-.4-.2-.6 0L9.3 7.2 2.6.9C2.4.8 2.2.8 2 .9L.8 2.1c-.1.1-.1.4 0 .5l6.6 6.3-6.6 6.3c-.1.2-.1.4 0 .6L2 16.9c.2.2.4.2.6 0l6.7-6.3 6.7 6.3c.2.2.4.2.6 0l1.1-1.1c.2-.2.2-.4 0-.6l-6.6-6.3z"/><path class="st0" d="M2.3 17.8c-.2 0-.5-.1-.8-.4L.2 16.1c-.2-.4-.2-.9 0-1.3l.2-.2 6-5.8L.4 3c-.3-.1-.4-.3-.4-.6 0-.4.1-.6.3-.8L1.7.3C2.1 0 2.6 0 3 .2l.2.1 6.2 5.8L15.5.3c.2-.2.5-.3.7-.3s.5.1.8.4l1.2 1.1c.3.3.4.6.4.9s-.1.5-.4.8l-6 5.8 6 5.8c.3.3.4.6.4.8 0 .2-.1.5-.4.8l-1.1 1.1c-.3.3-.6.4-.8.4-.2 0-.5-.1-.8-.4l-6.2-5.8-6.2 5.8c-.2.2-.6.3-.8.3zm-.7-2.3l.7.7 7-6.6 7 6.6.6-.6L10 8.9l6.9-6.6-.7-.7-6.9 6.6-7-6.6-.7.7 6.9 6.6-6.9 6.6z"/></svg>