<svg width="16" height="16" viewBox="0 0 16 16" xmlns="http://www.w3.org/2000/svg"><title>checkmark fill@3x</title><path d="M13.707.157A.707.707 0 0 0 13.259 0c-.164.003-.325.069-.495.233L5.75 9.617c-.736-.68-2.707-2.504-2.806-2.6-.097-.098-.277-.278-.555-.278h-.013c-.284.005-.44.181-.562.316l-.092.101L.223 8.799l-.094.108a.698.698 0 0 0-.129.41.686.686 0 0 0 .145.402l.148.142c1.813 1.674 5.266 4.864 5.362 4.957.1.097.286.275.568.275h.013c.272-.006.45-.204.545-.31l9.082-12.138.01-.013A.71.71 0 0 0 16 2.22a.72.72 0 0 0-.168-.44L13.707.156z" fill="#008AFC" fill-rule="evenodd"/></svg>