<svg id="Layer_1" data-name="Layer 1" xmlns="http://www.w3.org/2000/svg" viewBox="0 0 67.16 19.33">
    <title>logo-sc</title>
    <style>
        path {
          fill:white;
        }
    </style>
    <path class="setpath" d="M13.9,2.73a6.3,6.3,0,0,1,1.62.2,4.56,4.56,0,0,1,1.26.55,2.25,2.25,0,0,1,.78.82,1.5,1.5,0,0,1,.18,1l-.59,4.2a1.77,1.77,0,0,1-.46,1,3.38,3.38,0,0,1-1,.8,5.74,5.74,0,0,1-1.43.53,7.56,7.56,0,0,1-1.67.19H8.35L7.6,18H3.65L5.29,6.43A4.08,4.08,0,0,1,6.6,3.63a4.59,4.59,0,0,1,3-.9Zm0,3a.66.66,0,0,0-.34-.61,1.6,1.6,0,0,0-1-.27H9.38L8.65,10h3.21a2,2,0,0,0,1-.25.86.86,0,0,0,.49-.65Z" transform="translate(-3.65 -2.62)"/>
    <path class="setpath" d="M31,6.22,24.46,19.93a2.25,2.25,0,0,1-.66.83,4.18,4.18,0,0,1-1.05.63,6.47,6.47,0,0,1-1.31.41A7.19,7.19,0,0,1,20,22a3.31,3.31,0,0,1-1.13-.18,2.39,2.39,0,0,1-.81-.48,1.49,1.49,0,0,1-.44-.71,1.3,1.3,0,0,1,.07-.82h1.82a2,2,0,0,0,.94-.2,1.28,1.28,0,0,0,.58-.51l.38-.82L19,6.22H22.7l1.22,6.57L27,6.22Z" transform="translate(-3.65 -2.62)"/>
    <path class="setpath" d="M45.65,6a6.26,6.26,0,0,1,1.6.2,4.28,4.28,0,0,1,1.26.54,2.63,2.63,0,0,1,.79.81,1.45,1.45,0,0,1,.21,1L48.17,18a3.49,3.49,0,0,1-1.39.24,2.65,2.65,0,0,1-1.18-.32,2,2,0,0,1-.78-.82,2.14,2.14,0,0,1-.16-1.26l1-6.83a.7.7,0,0,0-.35-.62,1.62,1.62,0,0,0-1-.26h-.21a2.57,2.57,0,0,0-.55.06,1.9,1.9,0,0,0-.49.18,1.15,1.15,0,0,0-.36.28.61.61,0,0,0-.14.36l-1.23,9H37.5l1.26-9a.64.64,0,0,0-.31-.62,1.64,1.64,0,0,0-1-.26h-.15a2.2,2.2,0,0,0-1.07.26c-.3.18-.47.38-.48.62l-1.22,9h-4L32.29,6.22c.52-.06,1-.1,1.46-.12a11.74,11.74,0,0,1,1.19,0,2.62,2.62,0,0,1,.81.16.63.63,0,0,1,.37.34A6.16,6.16,0,0,1,38.83,6a5.8,5.8,0,0,1,1.88.29,4,4,0,0,1,1.35.78l.29-.21.28-.15a1.48,1.48,0,0,1,.29-.12A6.21,6.21,0,0,1,45.65,6Z" transform="translate(-3.65 -2.62)"/>
    <path class="setpath" d="M58.63,6a6,6,0,0,1,1.58.2,4.21,4.21,0,0,1,1.25.54,2.52,2.52,0,0,1,.79.81,1.56,1.56,0,0,1,.2,1l-1,7.16a1.78,1.78,0,0,1-.46,1,3.84,3.84,0,0,1-1,.81,5.75,5.75,0,0,1-1.39.54,6.66,6.66,0,0,1-1.62.2H53.71A6.28,6.28,0,0,1,52.1,18a4.34,4.34,0,0,1-1.27-.54,2.37,2.37,0,0,1-.8-.81,1.52,1.52,0,0,1-.2-1l1-7.16a1.82,1.82,0,0,1,.47-1,4.17,4.17,0,0,1,1-.81,5.75,5.75,0,0,1,1.43-.54A7,7,0,0,1,55.42,6Zm-.06,3a.72.72,0,0,0-.36-.62,1.71,1.71,0,0,0-1-.26H56.17a2.1,2.1,0,0,0-1,.26c-.31.18-.47.38-.48.62l-.92,6.26a.58.58,0,0,0,.34.59,2,2,0,0,0,1,.23h1a2.27,2.27,0,0,0,1.06-.23.84.84,0,0,0,.49-.59Z" transform="translate(-3.65 -2.62)"/>
    <path class="setpath" d="M70.68,15.9l-.29,1.93a2.87,2.87,0,0,1-.66.14c-.23,0-.47,0-.71,0H68.1a6.3,6.3,0,0,1-1.62-.2,4,4,0,0,1-1.25-.55,2.5,2.5,0,0,1-.78-.81,1.71,1.71,0,0,1-.24-1l1.08-7.12H63.84l.31-2.1h1.39l.17-1A2.33,2.33,0,0,1,66.22,4a3.45,3.45,0,0,1,1-.9,4,4,0,0,1,1.31-.47,3,3,0,0,1,1.34.06l-.55,3.49h1.45l-.32,2.1H69.07l-.93,6.74a.58.58,0,0,0,.31.59,1.66,1.66,0,0,0,1,.25h1.26Z" transform="translate(-3.65 -2.62)"/>
</svg>