<svg xmlns="http://www.w3.org/2000/svg" viewBox="0 0 206.65 33.46"><defs><style>.cls-1{fill:#fff;}.cls-2{fill:#4c4c4c;}</style></defs><title>logo-ssusa</title><g id="Layer_1" data-name="Layer 1"><g id="Page-Updates---032018"><g id="Logo_SSUSA-OLD" data-name="Logo/SSUSA-OLD"><g id="Logo_3-Programs-_-Affiliates_4-Auth-Dealer-Fill" data-name="Logo/3-Programs-&amp;-Affiliates/4-Auth-Dealer-Fill"><g id="_1-Color_3-Neutrals_8-White" data-name="1-Color/3-Neutrals/8-White"><polygon id="_FFFFFF" data-name="#FFFFFF" class="cls-1" points="100.09 0 101.09 0 101.09 33.36 100.09 33.36 100.09 0"/></g><g id="Logo_1-Primary_6-ADT-Filled-Reversed" data-name="Logo/1-Primary/6-ADT-Filled-Reversed"><g id="mask-4"><path id="path-3" class="cls-1" d="M10.42.25H24.49l10,9.8V23.91l-10,9.8H10.42l-10-9.8V10.05ZM26.34,13.91h3.27V11.59H20.7v2.32h3.24V22.4h2.4ZM13.91,22.4h2.6l-5.6-10.81L5.3,22.4H7.89l.59-1.11h4.86Zm8.86-8.07h-2.5V12.05a5.74,5.74,0,0,0-2.37-.49H14.16v5.38l2.73,5.27.1.19h.91A5.33,5.33,0,0,0,23.42,17,5.49,5.49,0,0,0,22.77,14.33ZM10.91,16.61,12.17,19H9.63Zm7,3.41H16.56v-6.1H17.9A3,3,0,0,1,21,17,3,3,0,0,1,17.9,20Z" transform="translate(-0.46 -0.25)"/></g></g></g></g></g><rect class="cls-1" x="3.29" y="8.25" width="28.25" height="16.25" rx="6.63" ry="6.63"/><path class="cls-2" d="M9.82,18.29v4.87a.94.94,0,0,1-.29.7,1,1,0,0,1-1.7-.7v-12a1,1,0,0,1,1-1h4a4.06,4.06,0,0,1,4.08,4.07,4.06,4.06,0,0,1-4.08,4.08Zm3-6.19h-3v4.23h3a2.12,2.12,0,1,0,0-4.23Z" transform="translate(-0.46 -0.25)"/><path class="cls-2" d="M18.09,11.13a.94.94,0,0,1,.29-.69.91.91,0,0,1,.69-.29.92.92,0,0,1,.69.28,1,1,0,0,1,.19.26l3,4.42,3.09-4.53.13-.15a.93.93,0,0,1,.68-.28.91.91,0,0,1,.7.29.94.94,0,0,1,.28.69,1,1,0,0,1-.23.63L24,17.13v6.05a1,1,0,0,1-1.95,0v-6l-3.74-5.46A1,1,0,0,1,18.09,11.13Z" transform="translate(-0.46 -0.25)"/><path class="cls-1" d="M43.53,17.87v4.38a.9.9,0,0,1-1.8,0V11.44a.92.92,0,0,1,.9-.9h3.6a3.67,3.67,0,0,1,3.68,3.67,3.67,3.67,0,0,1-3.68,3.67Zm2.7-5.57h-2.7v3.8h2.7a1.9,1.9,0,1,0,0-3.8Z" transform="translate(-0.46 -0.25)"/><path class="cls-1" d="M51.9,15.66a.88.88,0,0,1-.1-.43.85.85,0,0,1,.88-.87.86.86,0,0,1,.62.25.79.79,0,0,1,.2.33l2.69,5.37,2.68-5.37a.84.84,0,0,1,.21-.33.85.85,0,0,1,.63-.25.87.87,0,0,1,.88.87.83.83,0,0,1-.09.39L55.29,26.07a1,1,0,0,1-.23.33.89.89,0,0,1-.63.26.89.89,0,0,1-.88-.88,1.07,1.07,0,0,1,.12-.51l1.54-3Z" transform="translate(-0.46 -0.25)"/><path class="cls-1" d="M69.22,23.15a.87.87,0,0,1-.64-.27,1,1,0,0,1-.26-.75v-3.4a.76.76,0,0,1,0-.15,2.6,2.6,0,0,0-2.6-2.43h0a2.6,2.6,0,0,0-2.6,2.43.76.76,0,0,1,0,.15v3.4a1,1,0,0,1-.26.75.88.88,0,0,1-1.27,0,1,1,0,0,1-.26-.77V18.72a4.22,4.22,0,0,1,1.28-3.06,4.5,4.5,0,0,1,3-1.3h.14a4.5,4.5,0,0,1,3,1.3,4.08,4.08,0,0,1,.4.44,3.16,3.16,0,0,1,.39-.44,4.5,4.5,0,0,1,3-1.3h.14a4.5,4.5,0,0,1,3,1.3,4.18,4.18,0,0,1,1.28,3.06v3.39a1,1,0,0,1-.26.77.85.85,0,0,1-.63.27.83.83,0,0,1-.63-.27,1,1,0,0,1-.27-.75v-3.4a.76.76,0,0,1,0-.15,2.45,2.45,0,0,0-.76-1.67,2.5,2.5,0,0,0-1.84-.76h0a2.6,2.6,0,0,0-2.6,2.43.76.76,0,0,1,0,.15v3.4a1,1,0,0,1-.26.75.87.87,0,0,1-.64.27Z" transform="translate(-0.46 -0.25)"/><path class="cls-1" d="M86.4,15.66a4.39,4.39,0,0,1,0,6.2,4.39,4.39,0,0,1-7.49-3.1,4.38,4.38,0,0,1,7.49-3.1Zm-3.1.49a2.61,2.61,0,1,0,0,5.21,2.61,2.61,0,0,0,1.84-4.45A2.5,2.5,0,0,0,83.3,16.15Z" transform="translate(-0.46 -0.25)"/><path class="cls-1" d="M90.06,14.34V12.67a.82.82,0,0,1,.26-.63.86.86,0,0,1,.63-.27.92.92,0,0,1,.9.9v1.67h1a.9.9,0,1,1,0,1.79h-1v6.12a.92.92,0,0,1-.9.9.86.86,0,0,1-.63-.27.82.82,0,0,1-.26-.63V16.13H89a.9.9,0,0,1,0-1.79Z" transform="translate(-0.46 -0.25)"/><path class="cls-1" d="M108.74,19.06v3.85a.81.81,0,0,1-.24.59.79.79,0,0,1-.59.25.85.85,0,0,1-.84-.84V12.82a.79.79,0,0,1,.25-.59.81.81,0,0,1,.59-.24.82.82,0,0,1,.83.83v4.12l6-4.72a.73.73,0,0,1,.56-.23.82.82,0,0,1,.82.82.82.82,0,0,1-.23.58l-.14.11L110.06,18l5.71,4.28.09.08a.83.83,0,0,1,.23.58.82.82,0,0,1-.82.82.81.81,0,0,1-.55-.21Z" transform="translate(-0.46 -0.25)"/><path class="cls-1" d="M123.71,16.76a4.09,4.09,0,0,1,0,5.79,4.09,4.09,0,0,1-5.79,0,4.12,4.12,0,0,1,0-5.79,4.09,4.09,0,0,1,5.79,0Zm-2.89.46a2.36,2.36,0,0,0-1.72.71,2.43,2.43,0,0,0,3.44,3.44,2.43,2.43,0,0,0-1.72-4.15Z" transform="translate(-0.46 -0.25)"/><path class="cls-1" d="M128,13.38a.78.78,0,0,1,.25.59v8.94a.85.85,0,0,1-.84.84.79.79,0,0,1-.59-.25.81.81,0,0,1-.24-.59V14a.81.81,0,0,1,.24-.59.83.83,0,0,1,.59-.25A.82.82,0,0,1,128,13.38Z" transform="translate(-0.46 -0.25)"/><path class="cls-1" d="M131.55,20.74v2.17a.85.85,0,0,1-.84.84.79.79,0,0,1-.59-.25.81.81,0,0,1-.24-.59V14a.81.81,0,0,1,.24-.59.83.83,0,0,1,.59-.25.82.82,0,0,1,.59.25.78.78,0,0,1,.25.59v4.6l3.55-2.84a.8.8,0,0,1,.52-.18.82.82,0,0,1,.58,1.4.61.61,0,0,1-.16.12l-3.2,2.56,3.32,2.65,0,0,.06.05a.8.8,0,0,1,.24.58.82.82,0,0,1-.82.82.8.8,0,0,1-.5-.17h0Z" transform="translate(-0.46 -0.25)"/><path class="cls-1" d="M145.13,23a.74.74,0,0,1-.24.64,1,1,0,0,1-.59.16,1,1,0,0,1-.59-.16.69.69,0,0,1-.25-.63,3.9,3.9,0,0,1-2.42.79A4.08,4.08,0,0,1,137,19.66a4.09,4.09,0,0,1,8.18,0Zm-2.37-5a2.43,2.43,0,0,0-3.44,3.44,2.44,2.44,0,0,0,3.44,0,2.29,2.29,0,0,0,.7-1.43v-.31a.76.76,0,0,1,0-.15A2.33,2.33,0,0,0,142.76,17.93Z" transform="translate(-0.46 -0.25)"/><path class="cls-1" d="M147.35,15.53V14a.81.81,0,0,1,.24-.59.83.83,0,0,1,1.19,0A.81.81,0,0,1,149,14v1.56h.91a.85.85,0,0,1,.84.84.79.79,0,0,1-.25.59.81.81,0,0,1-.59.24H149v5.71a.81.81,0,0,1-.24.59.83.83,0,0,1-1.19,0,.81.81,0,0,1-.24-.59V17.2h-.95a.82.82,0,0,1-.83-.83.81.81,0,0,1,.24-.59.79.79,0,0,1,.59-.25Z" transform="translate(-0.46 -0.25)"/><path class="cls-1" d="M159.27,23a.74.74,0,0,1-.24.64,1,1,0,0,1-.59.16,1,1,0,0,1-.59-.16.69.69,0,0,1-.25-.63,4.09,4.09,0,0,1-6.51-3.3,4.09,4.09,0,0,1,8.18,0Zm-2.37-5a2.43,2.43,0,1,0-1.72,4.15,2.32,2.32,0,0,0,1.72-.71,2.29,2.29,0,0,0,.7-1.43v-.31a.76.76,0,0,1,0-.15A2.29,2.29,0,0,0,156.9,17.93Z" transform="translate(-0.46 -0.25)"/><path class="cls-1" d="M167.27,12.23a.79.79,0,0,1,.25.59V22.91a.85.85,0,0,1-.84.84.79.79,0,0,1-.59-.25.81.81,0,0,1-.24-.59V12.82a.82.82,0,0,1,.83-.83A.81.81,0,0,1,167.27,12.23Z" transform="translate(-0.46 -0.25)"/><path class="cls-1" d="M170.81,15.17v7.74a.83.83,0,0,1-1.43.59.82.82,0,0,1-.25-.59V12.82a.83.83,0,0,1,.25-.59.85.85,0,0,1,1.18,0,.82.82,0,0,1,.16.22l6.62,8.17v-7.8a.82.82,0,0,1,.24-.59.86.86,0,0,1,1.19,0,.82.82,0,0,1,.24.59V22.91a.81.81,0,0,1-.24.59.83.83,0,0,1-1.19,0l-.06-.05Z" transform="translate(-0.46 -0.25)"/><path class="cls-1" d="M181.45,23.75a.85.85,0,0,1-.84-.84V12.82a.79.79,0,0,1,.25-.59.81.81,0,0,1,.59-.24h3.24a5.87,5.87,0,0,1,5.88,5.88,5.87,5.87,0,0,1-5.88,5.88Zm3.24-10.09h-2.4v8.42h2.4a4.23,4.23,0,0,0,4.21-4.21,4.22,4.22,0,0,0-4.21-4.21Z" transform="translate(-0.46 -0.25)"/><path class="cls-1" d="M193.76,12.23a.79.79,0,0,1,.25.59V22.91a.83.83,0,0,1-1.43.59.82.82,0,0,1-.25-.59V12.82a.83.83,0,0,1,.25-.59.85.85,0,0,1,1.18,0Z" transform="translate(-0.46 -0.25)"/><path class="cls-1" d="M198.55,20.47l-1.36,2.8a.78.78,0,0,1-.16.24.82.82,0,0,1-.59.24.78.78,0,0,1-.58-.24.8.8,0,0,1-.24-.58.73.73,0,0,1,.13-.43l4.86-10a1,1,0,0,1,.17-.25.81.81,0,0,1,.59-.24.82.82,0,0,1,.58.24.78.78,0,0,1,.15.22l4.87,10a.78.78,0,0,1,.14.46.8.8,0,0,1-.24.58.82.82,0,0,1-.58.24.77.77,0,0,1-.58-.24.66.66,0,0,1-.17-.24h0l-1.36-2.8Zm4.83-1.64-2-4.14-2,4.14Z" transform="translate(-0.46 -0.25)"/></g></svg>