<?xml version="1.0" encoding="UTF-8"?>
<svg width="239px" height="23px" viewBox="0 0 239 23" version="1.1" xmlns="http://www.w3.org/2000/svg" xmlns:xlink="http://www.w3.org/1999/xlink">
    <!-- Generator: Sketch 49 (51002) - http://www.bohemiancoding.com/sketch -->
    <title>Logo - SecurityChoice</title>
    <desc>Created with Sketch.</desc>
    <defs>
        <path d="M108.390077,10.1522 L108.390077,6.1502 C108.390077,4.98060741 107.326663,3.95412593 106.114808,3.95412593 C104.902115,3.95412593 103.838701,4.98060741 103.838701,6.1502 L103.838701,10.1522 L108.390077,10.1522 Z M99.7930343,10.1522 L99.7930343,6.30694074 C99.7930343,2.88760741 102.688068,-0.00017037037 106.114808,-0.00017037037 C109.54071,-0.00017037037 112.435744,2.88760741 112.435744,6.30694074 L112.435744,10.1522 L112.94162,10.1522 C113.777758,10.1522 114.458745,10.8430519 114.458745,11.6932 L114.458745,20.9392 C114.458745,21.7884963 113.777758,22.4802 112.94162,22.4802 L99.2874937,22.4802 C98.450517,22.4802 97.7703686,21.7884963 97.7703686,20.9392 L97.7703686,11.6932 C97.7703686,10.8430519 98.450517,10.1522 99.2874937,10.1522 L99.7930343,10.1522 Z M2.59454392,21.4705 C1.71311855,21.2030185 0.99606937,20.8409815 0.44423503,20.383537 C0.148190164,20.1612037 -0.000251596203,19.8477222 -0.000251596203,19.4430926 C-0.000251596203,19.1687963 0.080259189,18.9302778 0.241280759,18.727537 C0.401463676,18.5247963 0.590999482,18.4242778 0.810726833,18.4242778 C1.04135669,18.4242778 1.30469405,18.5154259 1.60073891,18.6985741 C2.15425056,19.1032037 2.73292183,19.3970926 3.33675272,19.5802407 C3.94142226,19.7633889 4.60982951,19.854537 5.34281311,19.854537 C6.28126695,19.854537 7.00167075,19.6875741 7.5040245,19.3545 C8.00470095,19.0214259 8.2554585,18.5350185 8.2554585,17.8952778 C8.2554585,17.3986481 8.02063538,17.0161667 7.55182778,16.7486852 C7.08218154,16.4812037 6.300556,16.2230926 5.20778982,15.9752037 C4.07644556,15.726463 3.15644211,15.4393889 2.44945677,15.1131296 C1.74247144,14.7860185 1.20908749,14.3686111 0.848466264,13.8583519 C0.488683693,13.3497963 0.30837308,12.7032407 0.30837308,11.919537 C0.30837308,11.1094259 0.533132355,10.3845 0.98348956,9.74475926 C1.43384676,9.10416667 2.06032131,8.60498148 2.86459051,8.2455 C3.66802105,7.88687037 4.57125142,7.70712963 5.57428162,7.70712963 C7.41344987,7.70712963 8.91128594,8.20375926 10.0686285,9.19616667 C10.2355206,9.34012963 10.3546095,9.47983333 10.4258951,9.61698148 C10.496342,9.75412963 10.5315655,9.92790741 10.5315655,10.1366111 C10.5315655,10.4109074 10.4510547,10.6485741 10.2908718,10.8513148 C10.1298502,11.0540556 9.94031441,11.1554259 9.72226437,11.1554259 C9.59311165,11.1554259 9.47402278,11.1358333 9.36499776,11.0966481 C9.25513408,11.057463 9.11088559,10.9850556 8.93057498,10.8811296 C8.4030616,10.4892778 7.89232131,10.1987963 7.39751544,10.0088333 C6.90187092,9.81972222 6.29468542,9.72431481 5.57428162,9.72431481 C4.69956549,9.72431481 4.00935324,9.90405556 3.5011289,10.263537 C2.99290457,10.6230185 2.73879241,11.1230556 2.73879241,11.7627963 C2.73879241,12.2977593 2.96355168,12.7092037 3.41474754,12.9971296 C3.86426609,13.2842037 4.62911855,13.552537 5.70930492,13.8004259 C6.85406764,14.0619444 7.78329629,14.3524259 8.49699085,14.6718704 C9.21068542,14.9921667 9.75748783,15.4002037 10.1365594,15.8968333 C10.5156311,16.393463 10.7051669,17.0136111 10.7051669,17.7581296 C10.7051669,18.5682407 10.4837622,19.2829444 10.0401142,19.9030926 C9.59646626,20.5240926 8.97250768,21.0070926 8.16907714,21.3529444 C7.36480794,21.6987963 6.44228852,21.8725741 5.40068024,21.8725741 C4.41106851,21.8725741 3.47513063,21.7379815 2.59454392,21.4705 Z M13.318916,21.3823333 C13.1067365,21.1736296 13.0010661,20.8797407 13.0010661,20.5006667 L13.0010661,9.07818519 C13.0010661,8.69996296 13.1067365,8.40607407 13.318916,8.19651852 C13.5310954,7.98781481 13.8237857,7.88303704 14.1961481,7.88303704 L21.160331,7.88303704 C21.5326934,7.88303704 21.822029,7.96822222 22.0283379,8.13774074 C22.2338081,8.30811111 22.3361239,8.54918519 22.3361239,8.86266667 C22.3361239,9.18977778 22.2338081,9.44022222 22.0283379,9.61655556 C21.822029,9.79374074 21.5326934,9.88148148 21.160331,9.88148148 L15.4314854,9.88148148 L15.4314854,13.6824444 L20.7745501,13.6824444 C21.1469125,13.6824444 21.4362481,13.7676296 21.6417184,13.9371481 C21.8471886,14.1066667 21.9503431,14.3554074 21.9503431,14.6816667 C21.9503431,14.9951481 21.8471886,15.2370741 21.6417184,15.4065926 C21.4362481,15.576963 21.1469125,15.6612963 20.7745501,15.6612963 L15.4314854,15.6612963 L15.4314854,19.6973704 L21.160331,19.6973704 C21.5326934,19.6973704 21.822029,19.7851111 22.0283379,19.9622963 C22.2338081,20.1386296 22.3361239,20.3899259 22.3361239,20.7161852 C22.3361239,21.0296667 22.2338081,21.2715926 22.0283379,21.4411111 C21.822029,21.6114815 21.5326934,21.6958148 21.160331,21.6958148 L14.1961481,21.6958148 C13.8237857,21.6958148 13.5310954,21.5918889 13.318916,21.3823333 Z M26.9565204,21.0100741 C25.9727793,20.4359259 25.217152,19.613037 24.6896387,18.5414074 C24.1621253,17.4706296 23.8987879,16.2167037 23.8987879,14.7796296 C23.8987879,13.3434074 24.1621253,12.0928889 24.6896387,11.0280741 C25.217152,9.96325926 25.9727793,9.14377778 26.9565204,8.56877778 C27.9402616,7.99462963 29.0883789,7.7067037 30.3991952,7.7067037 C31.247913,7.7067037 32.045473,7.83448148 32.7918751,8.08918519 C33.5365998,8.34388889 34.1991365,8.71274074 34.7778078,9.19574074 C34.9446999,9.32692593 35.0612728,9.46407407 35.1250105,9.60718519 C35.1895869,9.75114815 35.2214557,9.92748148 35.2214557,10.1361852 C35.2214557,10.4241111 35.1442996,10.6651852 34.9899872,10.8611111 C34.8365135,11.057037 34.6494937,11.155 34.430605,11.155 C34.1731382,11.155 33.9106395,11.0638519 33.6397543,10.8807037 C33.0870813,10.4632963 32.5721477,10.171963 32.0966309,10.0084074 C31.6211141,9.8457037 31.0936007,9.76392593 30.5149294,9.76392593 C29.1772763,9.76392593 28.1650209,10.1881481 27.4773246,11.0374444 C26.7887896,11.8867407 26.4449415,13.1338519 26.4449415,14.7796296 C26.4449415,16.439037 26.7887896,17.6921111 27.4773246,18.5414074 C28.1650209,19.3907037 29.1772763,19.8149259 30.5149294,19.8149259 C31.0676024,19.8149259 31.5791814,19.7305926 32.0488276,19.5602222 C32.5176352,19.3907037 33.0485032,19.1036296 33.6397543,18.6981481 C33.768907,18.6197778 33.8972211,18.555037 34.0255351,18.5022222 C34.1546878,18.4502593 34.2888725,18.4238519 34.430605,18.4238519 C34.6494937,18.4238519 34.8365135,18.5218148 34.9899872,18.7177407 C35.1442996,18.9136667 35.2214557,19.1555926 35.2214557,19.4426667 C35.2214557,19.6385926 35.1895869,19.8123704 35.1250105,19.9622963 C35.0612728,20.1122222 34.9446999,20.2527778 34.7778078,20.3831111 C34.1991365,20.866963 33.5365998,21.2358148 32.7918751,21.4896667 C32.045473,21.7452222 31.247913,21.8721481 30.3991952,21.8721481 C29.0883789,21.8721481 27.9402616,21.5850741 26.9565204,21.0100741 Z M38.7705557,20.4027889 C37.8061035,19.4231593 37.3238775,17.9929 37.3238775,16.1120111 L37.3238775,9.03908519 C37.3238775,8.66001111 37.4329025,8.35675185 37.6517912,8.1276037 C37.8706799,7.89930741 38.1658861,7.78515926 38.5390871,7.78515926 C38.9114495,7.78515926 39.2074944,7.89930741 39.4263831,8.1276037 C39.6444331,8.35675185 39.7542968,8.66001111 39.7542968,9.03908519 L39.7542968,16.2491593 C39.7542968,17.4383444 40.0310526,18.3361963 40.5837256,18.9435667 C41.1363986,19.550937 41.9465384,19.8541963 43.014145,19.8541963 C44.068333,19.8541963 44.8726022,19.5475296 45.4252752,18.9333444 C45.9779482,18.3200111 46.2547041,17.4247148 46.2547041,16.2491593 L46.2547041,9.03908519 C46.2547041,8.66001111 46.3637291,8.35675185 46.5826178,8.1276037 C46.8015065,7.89930741 47.0967127,7.78515926 47.4699137,7.78515926 C47.8431148,7.78515926 48.138321,7.89930741 48.3572097,8.1276037 C48.5760984,8.35675185 48.6851234,8.66001111 48.6851234,9.03908519 L48.6851234,16.1120111 C48.6851234,17.9801222 48.2028973,19.4069741 47.2384452,20.3934185 C46.2739931,21.3790111 44.865893,21.8722333 43.014145,21.8722333 C41.1498171,21.8722333 39.7350078,21.3824185 38.7705557,20.4027889 Z M62.6505577,20.7943 C62.6505577,21.0950037 62.5314689,21.3428926 62.2932911,21.5388185 C62.0551134,21.7347444 61.7758416,21.8335593 61.4546371,21.8335593 C61.2491669,21.8335593 61.0529218,21.7841519 60.865902,21.6861889 C60.6797208,21.5882259 60.5220538,21.4417074 60.3937398,21.2457815 L57.8282972,17.2880778 C57.5708304,16.8698185 57.2974292,16.5759296 57.0080935,16.4055593 C56.7187579,16.2360407 56.3430409,16.1517074 55.8801039,16.1517074 L53.9897777,16.1517074 L53.9897777,20.5404481 C53.9897777,20.9314481 53.8799141,21.2423741 53.661864,21.4706704 C53.4429753,21.6989667 53.1469305,21.8139667 52.7745681,21.8139667 C52.401367,21.8139667 52.1019676,21.6989667 51.8772083,21.4706704 C51.652449,21.2423741 51.5400694,20.9314481 51.5400694,20.5404481 L51.5400694,9.07792963 C51.5400694,8.69970741 51.6457398,8.40581852 51.8579192,8.19626296 C52.0700987,7.98755926 52.362789,7.88363333 52.73599,7.88363333 L57.5582506,7.88363333 C59.1013739,7.88363333 60.2746509,8.23289259 61.0780814,8.93141111 C61.881512,9.62992963 62.2840659,10.6393741 62.2840659,11.9580407 C62.2840659,13.0296704 61.9846664,13.9079296 61.3867061,14.5936704 C60.7887458,15.2794111 59.9433826,15.7198185 58.8506164,15.9157444 C59.2229788,16.0077444 59.5517311,16.1713 59.8343575,16.4055593 C60.116984,16.6406704 60.3937398,16.9677815 60.6637864,17.3851889 L62.4190892,20.1094111 C62.5734016,20.3445222 62.6505577,20.5728185 62.6505577,20.7943 Z M65.2831765,21.4609593 C65.0575786,21.2258481 64.9460376,20.9191815 64.9460376,20.5401074 L64.9460376,9.03925556 C64.9460376,8.66018148 65.0575786,8.35692222 65.2831765,8.12777407 C65.5079358,7.89947778 65.8073353,7.78532963 66.1805363,7.78532963 C66.5663172,7.78532963 66.8715872,7.89947778 67.0963465,8.12777407 C67.3211058,8.35692222 67.4334854,8.66018148 67.4334854,9.03925556 L67.4334854,20.5401074 C67.4334854,20.9191815 67.3211058,21.2258481 67.0963465,21.4609593 C66.8715872,21.6960704 66.5663172,21.8136259 66.1805363,21.8136259 C65.8073353,21.8136259 65.5079358,21.6960704 65.2831765,21.4609593 Z M73.9051268,21.4509926 C73.6803676,21.2226963 73.5679879,20.9185852 73.5679879,20.540363 L73.5679879,9.96036296 L70.0573822,9.96036296 C69.2858205,9.96036296 68.9000397,9.61365926 68.9000397,8.92195556 C68.9000397,8.2294 69.2858205,7.88354815 70.0573822,7.88354815 L79.5668801,7.88354815 C80.3384418,7.88354815 80.7242226,8.2294 80.7242226,8.92195556 C80.7242226,9.61365926 80.3384418,9.96036296 79.5668801,9.96036296 L76.0562744,9.96036296 L76.0562744,20.540363 C76.0562744,20.9185852 75.9430561,21.2226963 75.7182968,21.4509926 C75.4935375,21.6801407 75.1941381,21.7942889 74.8217757,21.7942889 C74.4359948,21.7942889 74.1307248,21.6801407 73.9051268,21.4509926 Z M91.7953781,7.78515926 C92.091423,7.78515926 92.3547603,7.89930741 92.5862288,8.1276037 C92.8176973,8.35675185 92.9334316,8.62764074 92.9334316,8.94112222 C92.9334316,9.20264074 92.8369864,9.45052963 92.6440959,9.68564074 L88.2654833,15.1127889 L88.2654833,20.539937 C88.2654833,20.9454185 88.1497491,21.2580481 87.9182806,21.4803815 C87.6868121,21.701863 87.3907672,21.8134556 87.0309846,21.8134556 C86.6577836,21.8134556 86.3558682,21.701863 86.1243997,21.4803815 C85.8929311,21.2580481 85.7771969,20.9454185 85.7771969,20.539937 L85.7771969,15.1127889 L81.3985843,9.68564074 C81.2056939,9.45052963 81.1092487,9.20264074 81.1092487,8.94112222 C81.1092487,8.62764074 81.2249829,8.35675185 81.4564514,8.1276037 C81.6879199,7.89930741 81.9512573,7.78515926 82.2473022,7.78515926 C82.5685066,7.78515926 82.8452625,7.92912222 83.076731,8.2161963 L87.0309846,13.1927148 L90.9659493,8.2161963 C91.1974178,7.92912222 91.4741736,7.78515926 91.7953781,7.78515926 Z M194.10991,21.3923 C193.839863,21.1111889 193.705678,20.7619296 193.705678,20.3445222 C193.705678,19.926263 193.839863,19.5770037 194.10991,19.2958926 C194.379956,19.0147815 194.721288,18.8742259 195.132229,18.8742259 C195.544008,18.8742259 195.884501,19.0147815 196.154548,19.2958926 C196.424595,19.5770037 196.559618,19.926263 196.559618,20.3445222 C196.559618,20.7619296 196.424595,21.1111889 196.154548,21.3923 C195.884501,21.6734111 195.544008,21.8139667 195.132229,21.8139667 C194.721288,21.8139667 194.379956,21.6734111 194.10991,21.3923 Z M123.279288,21.0100741 C122.295547,20.4359259 121.53992,19.613037 121.012407,18.5414074 C120.484893,17.4706296 120.221556,16.2167037 120.221556,14.7796296 C120.221556,13.3434074 120.484893,12.0928889 121.012407,11.0280741 C121.53992,9.96325926 122.295547,9.14377778 123.279288,8.56877778 C124.26303,7.99462963 125.411147,7.7067037 126.721963,7.7067037 C127.570681,7.7067037 128.368241,7.83448148 129.114643,8.08918519 C129.859368,8.34388889 130.521904,8.71274074 131.100576,9.19574074 C131.267468,9.32692593 131.384041,9.46407407 131.447778,9.60718519 C131.512355,9.75114815 131.544224,9.92748148 131.544224,10.1361852 C131.544224,10.4241111 131.467067,10.6651852 131.312755,10.8611111 C131.159281,11.057037 130.972262,11.155 130.753373,11.155 C130.495906,11.155 130.233407,11.0638519 129.962522,10.8807037 C129.409849,10.4632963 128.894916,10.171963 128.419399,10.0084074 C127.943882,9.8457037 127.416369,9.76392593 126.837697,9.76392593 C125.500044,9.76392593 124.487789,10.1881481 123.800092,11.0374444 C123.111558,11.8867407 122.767709,13.1338519 122.767709,14.7796296 C122.767709,16.439037 123.111558,17.6921111 123.800092,18.5414074 C124.487789,19.3907037 125.500044,19.8149259 126.837697,19.8149259 C127.39037,19.8149259 127.901949,19.7305926 128.371596,19.5602222 C128.840403,19.3907037 129.371271,19.1036296 129.962522,18.6981481 C130.091675,18.6197778 130.219989,18.555037 130.348303,18.5022222 C130.477456,18.4502593 130.61164,18.4238519 130.753373,18.4238519 C130.972262,18.4238519 131.159281,18.5218148 131.312755,18.7177407 C131.467067,18.9136667 131.544224,19.1555926 131.544224,19.4426667 C131.544224,19.6385926 131.512355,19.8123704 131.447778,19.9622963 C131.384041,20.1122222 131.267468,20.2527778 131.100576,20.3831111 C130.521904,20.866963 129.859368,21.2358148 129.114643,21.4896667 C128.368241,21.7452222 127.570681,21.8721481 126.721963,21.8721481 C125.411147,21.8721481 124.26303,21.5850741 123.279288,21.0100741 Z M145.239444,8.12794444 C145.458332,8.35709259 145.567357,8.66035185 145.567357,9.03942593 L145.567357,20.5402778 C145.567357,20.9193519 145.454139,21.2260185 145.22938,21.4611296 C145.004621,21.6962407 144.71193,21.8137963 144.352148,21.8137963 C143.978947,21.8137963 143.68374,21.6962407 143.464852,21.4611296 C143.245963,21.2260185 143.136938,20.9193519 143.136938,20.5402778 L143.136938,15.7009074 L136.173594,15.7009074 L136.173594,20.5402778 C136.173594,20.9193519 136.061214,21.2260185 135.836455,21.4611296 C135.610857,21.6962407 135.312296,21.8137963 134.939095,21.8137963 C134.579313,21.8137963 134.285784,21.6962407 134.061024,21.4611296 C133.836265,21.2260185 133.723885,20.9193519 133.723885,20.5402778 L133.723885,9.03942593 C133.723885,8.66035185 133.83291,8.35709259 134.051799,8.12794444 C134.269849,7.89964815 134.565894,7.7855 134.939095,7.7855 C135.312296,7.7855 135.610857,7.89964815 135.836455,8.12794444 C136.061214,8.35709259 136.173594,8.66035185 136.173594,9.03942593 L136.173594,13.6632778 L143.136938,13.6632778 L143.136938,9.03942593 C143.136938,8.66035185 143.245963,8.35709259 143.464852,8.12794444 C143.68374,7.89964815 143.978947,7.7855 144.352148,7.7855 C144.725349,7.7855 145.020555,7.89964815 145.239444,8.12794444 Z M151.112789,21.0101593 C150.141628,20.4360111 149.39271,19.6131222 148.865197,18.5414926 C148.338522,17.4707148 148.075184,16.2167889 148.075184,14.7797148 C148.075184,13.3426407 148.335167,12.0929741 148.855971,11.0281593 C149.376775,9.96334444 150.125694,9.14386296 151.102725,8.56886296 C152.079757,7.99471481 153.231229,7.70678889 154.556303,7.70678889 C155.880537,7.70678889 157.027816,7.99471481 157.998977,8.56886296 C158.9693,9.14386296 159.715702,9.96334444 160.236506,11.0281593 C160.75731,12.0929741 161.017293,13.3426407 161.017293,14.7797148 C161.017293,16.2167889 160.753956,17.4707148 160.226442,18.5414926 C159.698929,19.6131222 158.950011,20.4360111 157.979688,21.0101593 C157.008527,21.5851593 155.867958,21.8722333 154.556303,21.8722333 C153.231229,21.8722333 152.083112,21.5851593 151.112789,21.0101593 Z M163.862679,21.4609593 C163.637081,21.2258481 163.52554,20.9191815 163.52554,20.5401074 L163.52554,9.03925556 C163.52554,8.66018148 163.637081,8.35692222 163.862679,8.12777407 C164.087438,7.89947778 164.386837,7.78532963 164.760038,7.78532963 C165.145819,7.78532963 165.451089,7.89947778 165.675848,8.12777407 C165.901446,8.35692222 166.012987,8.66018148 166.012987,9.03925556 L166.012987,20.5401074 C166.012987,20.9191815 165.901446,21.2258481 165.675848,21.4609593 C165.451089,21.6960704 165.145819,21.8136259 164.760038,21.8136259 C164.386837,21.8136259 164.087438,21.6960704 163.862679,21.4609593 Z M171.578463,21.0100741 C170.594722,20.4359259 169.839095,19.613037 169.311581,18.5414074 C168.784068,17.4706296 168.520731,16.2167037 168.520731,14.7796296 C168.520731,13.3434074 168.784068,12.0928889 169.311581,11.0280741 C169.839095,9.96325926 170.594722,9.14377778 171.578463,8.56877778 C172.562204,7.99462963 173.709483,7.7067037 175.021138,7.7067037 C175.869856,7.7067037 176.666577,7.83448148 177.412979,8.08918519 C178.159381,8.34388889 178.821918,8.71274074 179.39975,9.19574074 C179.566643,9.32692593 179.682377,9.46407407 179.746953,9.60718519 C179.810691,9.75114815 179.843398,9.92748148 179.843398,10.1361852 C179.843398,10.4241111 179.767081,10.6651852 179.61193,10.8611111 C179.458456,11.057037 179.271436,11.155 179.052548,11.155 C178.795081,11.155 178.531744,11.0638519 178.262536,10.8807037 C177.709024,10.4632963 177.19409,10.171963 176.718574,10.0084074 C176.243057,9.8457037 175.716382,9.76392593 175.136872,9.76392593 C173.799219,9.76392593 172.786125,10.1881481 172.099267,11.0374444 C171.411571,11.8867407 171.067723,13.1338519 171.067723,14.7796296 C171.067723,16.439037 171.411571,17.6921111 172.099267,18.5414074 C172.786125,19.3907037 173.799219,19.8149259 175.136872,19.8149259 C175.689545,19.8149259 176.201124,19.7305926 176.67077,19.5602222 C177.140417,19.3907037 177.670446,19.1036296 178.262536,18.6981481 C178.390011,18.6197778 178.518325,18.555037 178.648316,18.5022222 C178.775792,18.4502593 178.910815,18.4238519 179.052548,18.4238519 C179.271436,18.4238519 179.458456,18.5218148 179.61193,18.7177407 C179.767081,18.9136667 179.843398,19.1555926 179.843398,19.4426667 C179.843398,19.6385926 179.810691,19.8123704 179.746953,19.9622963 C179.682377,20.1122222 179.566643,20.2527778 179.39975,20.3831111 C178.821918,20.866963 178.159381,21.2358148 177.412979,21.4896667 C176.666577,21.7452222 175.869856,21.8721481 175.021138,21.8721481 C173.709483,21.8721481 172.562204,21.5850741 171.578463,21.0100741 Z M182.341749,21.3823333 C182.128731,21.1736296 182.02306,20.8797407 182.02306,20.5006667 L182.02306,9.07818519 C182.02306,8.69996296 182.128731,8.40607407 182.341749,8.19651852 C182.553928,7.98781481 182.846618,7.88303704 183.218981,7.88303704 L190.182325,7.88303704 C190.555526,7.88303704 190.844862,7.96822222 191.050332,8.13774074 C191.255802,8.30811111 191.358957,8.54918519 191.358957,8.86266667 C191.358957,9.18977778 191.255802,9.44022222 191.050332,9.61655556 C190.844862,9.79374074 190.555526,9.88148148 190.182325,9.88148148 L184.454318,9.88148148 L184.454318,13.6824444 L189.796544,13.6824444 C190.169745,13.6824444 190.459081,13.7676296 190.664551,13.9371481 C190.870021,14.1066667 190.973176,14.3554074 190.973176,14.6816667 C190.973176,14.9951481 190.870021,15.2370741 190.664551,15.4065926 C190.459081,15.576963 190.169745,15.6612963 189.796544,15.6612963 L184.454318,15.6612963 L184.454318,19.6973704 L190.182325,19.6973704 C190.555526,19.6973704 190.844862,19.7851111 191.050332,19.9622963 C191.255802,20.1386296 191.358957,20.3899259 191.358957,20.7161852 C191.358957,21.0296667 191.255802,21.2715926 191.050332,21.4411111 C190.844862,21.6114815 190.555526,21.6958148 190.182325,21.6958148 L183.218981,21.6958148 C182.846618,21.6958148 182.553928,21.5918889 182.341749,21.3823333 Z M200.35805,21.0100741 C199.374309,20.4359259 198.618681,19.613037 198.091168,18.5414074 C197.563655,17.4706296 197.300317,16.2167037 197.300317,14.7796296 C197.300317,13.3434074 197.563655,12.0928889 198.091168,11.0280741 C198.618681,9.96325926 199.374309,9.14377778 200.35805,8.56877778 C201.341791,7.99462963 202.48907,7.7067037 203.800724,7.7067037 C204.649442,7.7067037 205.446164,7.83448148 206.192566,8.08918519 C206.938968,8.34388889 207.601504,8.71274074 208.179337,9.19574074 C208.346229,9.32692593 208.461963,9.46407407 208.52654,9.60718519 C208.590277,9.75114815 208.622985,9.92748148 208.622985,10.1361852 C208.622985,10.4241111 208.546667,10.6651852 208.391516,10.8611111 C208.238043,11.057037 208.051023,11.155 207.832134,11.155 C207.574667,11.155 207.31133,11.0638519 207.042122,10.8807037 C206.488611,10.4632963 205.973677,10.171963 205.49816,10.0084074 C205.022643,9.8457037 204.495969,9.76392593 203.916459,9.76392593 C202.578806,9.76392593 201.565711,10.1881481 200.878854,11.0374444 C200.191158,11.8867407 199.847309,13.1338519 199.847309,14.7796296 C199.847309,16.439037 200.191158,17.6921111 200.878854,18.5414074 C201.565711,19.3907037 202.578806,19.8149259 203.916459,19.8149259 C204.469132,19.8149259 204.980711,19.7305926 205.450357,19.5602222 C205.920003,19.3907037 206.450032,19.1036296 207.042122,18.6981481 C207.169598,18.6197778 207.297912,18.555037 207.427903,18.5022222 C207.555378,18.4502593 207.690402,18.4238519 207.832134,18.4238519 C208.051023,18.4238519 208.238043,18.5218148 208.391516,18.7177407 C208.546667,18.9136667 208.622985,19.1555926 208.622985,19.4426667 C208.622985,19.6385926 208.590277,19.8123704 208.52654,19.9622963 C208.461963,20.1122222 208.346229,20.2527778 208.179337,20.3831111 C207.601504,20.866963 206.938968,21.2358148 206.192566,21.4896667 C205.446164,21.7452222 204.649442,21.8721481 203.800724,21.8721481 C202.48907,21.8721481 201.341791,21.5850741 200.35805,21.0100741 Z M213.165387,21.0101593 C212.195064,20.4360111 211.445307,19.6131222 210.917794,18.5414926 C210.391119,17.4707148 210.127782,16.2167889 210.127782,14.7797148 C210.127782,13.3426407 210.388603,12.0929741 210.909407,11.0281593 C211.430212,9.96334444 212.178291,9.14386296 213.155323,8.56886296 C214.133193,7.99471481 215.284665,7.70678889 216.6089,7.70678889 C217.933135,7.70678889 219.081252,7.99471481 220.051575,8.56886296 C221.022736,9.14386296 221.7683,9.96334444 222.289104,11.0281593 C222.809908,12.0929741 223.070729,13.3426407 223.070729,14.7797148 C223.070729,16.2167889 222.806553,17.4707148 222.279879,18.5414926 C221.752365,19.6131222 221.003447,20.4360111 220.033124,21.0101593 C219.061124,21.5851593 217.920555,21.8722333 216.6089,21.8722333 C215.284665,21.8722333 214.136548,21.5851593 213.165387,21.0101593 Z M238.520917,8.12794444 C238.739805,8.35709259 238.849669,8.66035185 238.849669,9.03942593 L238.849669,20.6382407 C238.849669,21.0036852 238.746515,21.2916111 238.540206,21.5003148 C238.334735,21.7090185 238.064689,21.8137963 237.730905,21.8137963 C237.395443,21.8137963 237.132944,21.7090185 236.939215,21.5003148 C236.747163,21.2916111 236.650718,21.0036852 236.650718,20.6382407 L236.650718,12.5660926 L233.370742,18.8749074 C233.217269,19.1619815 233.049538,19.3740926 232.870066,19.5112407 C232.689755,19.6483889 232.476737,19.716537 232.232689,19.716537 C231.988641,19.716537 231.776461,19.6517963 231.59615,19.521463 C231.41584,19.3911296 231.248948,19.1756111 231.095474,18.8749074 L227.796209,12.6640556 L227.796209,20.6382407 C227.796209,20.9909074 227.697248,21.2745741 227.49681,21.4900926 C227.298049,21.7056111 227.031357,21.8137963 226.696734,21.8137963 C226.362111,21.8137963 226.098773,21.7090185 225.905883,21.5003148 C225.713831,21.2916111 225.616547,21.0036852 225.616547,20.6382407 L225.616547,9.03942593 C225.616547,8.66035185 225.723056,8.35709259 225.935236,8.12794444 C226.147415,7.89964815 226.433396,7.7855 226.794018,7.7855 C227.294694,7.7855 227.687184,8.06661111 227.969811,8.62798148 L232.251978,16.9156481 L236.514856,8.62798148 C236.797483,8.06661111 237.176554,7.7855 237.653748,7.7855 C238.013531,7.7855 238.302028,7.89964815 238.520917,8.12794444 Z M157.478173,18.5414926 C158.178449,17.6666407 158.529007,16.4127148 158.529007,14.7797148 C158.529007,13.1467148 158.178449,11.8970481 157.478173,11.0281593 C156.777058,10.1592704 155.802543,9.72482593 154.556303,9.72482593 C153.295806,9.72482593 152.314581,10.1592704 151.614304,11.0281593 C150.91319,11.8970481 150.562632,13.1467148 150.562632,14.7797148 C150.562632,16.4127148 150.91319,17.6666407 151.614304,18.5414926 C152.314581,19.4163444 153.295806,19.8541963 154.556303,19.8541963 C155.802543,19.8541963 156.777058,19.4163444 157.478173,18.5414926 Z M219.530771,18.5414926 C220.231885,17.6666407 220.582443,16.4127148 220.582443,14.7797148 C220.582443,13.1467148 220.231885,11.8970481 219.530771,11.0281593 C218.829656,10.1592704 217.855979,9.72482593 216.6089,9.72482593 C215.348403,9.72482593 214.368017,10.1592704 213.66774,11.0281593 C212.966626,11.8970481 212.616068,13.1467148 212.616068,14.7797148 C212.616068,16.4127148 212.966626,17.6666407 213.66774,18.5414926 C214.368017,19.4163444 215.348403,19.8541963 216.6089,19.8541963 C217.855979,19.8541963 218.829656,19.4163444 219.530771,18.5414926 Z M59.2749753,13.6728185 C59.7119141,13.3141889 59.9308028,12.7621889 59.9308028,12.0176704 C59.9308028,11.2595222 59.7119141,10.7083741 59.2749753,10.3616704 C58.8380366,10.0158185 58.1495016,9.84204074 57.2110478,9.84204074 L53.9704887,9.84204074 L53.9704887,14.2111889 L57.2110478,14.2111889 C58.1495016,14.2111889 58.8380366,14.0323 59.2749753,13.6728185 Z M99.2874937,11.1795333 C99.0090606,11.1795333 98.7817853,11.4103852 98.7817853,11.6932 L98.7817853,20.9392 C98.7817853,21.2220148 99.0090606,21.4528667 99.2874937,21.4528667 L112.94162,21.4528667 C113.220053,21.4528667 113.447328,21.2220148 113.447328,20.9392 L113.447328,11.6932 C113.447328,11.4103852 113.220053,11.1795333 112.94162,11.1795333 L99.2874937,11.1795333 Z M109.401493,10.1522 L111.424327,10.1522 L111.424327,6.30694074 C111.424327,3.44471852 108.99223,1.02716296 106.114808,1.02716296 C103.236548,1.02716296 100.804451,3.44471852 100.804451,6.30694074 L100.804451,10.1522 L102.827285,10.1522 L102.827285,6.1502 C102.827285,4.40305185 104.332669,2.92679259 106.114808,2.92679259 C107.896109,2.92679259 109.401493,4.40305185 109.401493,6.1502 L109.401493,10.1522 Z M106.367075,20.4252778 C105.530937,20.4252778 104.84995,19.7344259 104.84995,18.8842778 L104.84995,16.9096852 C104.055745,16.2878333 103.666609,15.1710556 103.91569,14.1377593 C104.136256,13.2211667 104.863369,12.4911296 105.767438,12.2773148 C106.538999,12.0950185 107.32985,12.2722037 107.938713,12.7628704 C108.546737,13.253537 108.895617,13.9869815 108.895617,14.7749444 C108.895617,15.6003889 108.498934,16.4207222 107.884201,16.9079815 L107.884201,18.8842778 C107.884201,19.7344259 107.204052,20.4252778 106.367075,20.4252778 Z M106.37043,13.2339444 C106.247987,13.2339444 106.122188,13.2484259 105.99639,13.2782407 C105.468038,13.4026111 105.026906,13.8464259 104.897754,14.3813889 C104.705702,15.1812778 105.110772,15.8976852 105.609771,16.1932778 L105.861367,16.3415 L105.861367,18.8842778 C105.861367,19.1679444 106.088642,19.3979444 106.367075,19.3979444 C106.646347,19.3979444 106.872784,19.1679444 106.872784,18.8842778 L106.872784,16.3415 L107.12438,16.1932778 C107.571383,15.9283519 107.884201,15.3456852 107.884201,14.7749444 C107.884201,14.3021667 107.674537,13.8626111 107.309723,13.5678704 C107.03716,13.3472407 106.712601,13.2339444 106.37043,13.2339444 Z" id="path-1"></path>
    </defs>
    <g id="Page-Updates---032018" stroke="none" stroke-width="1" fill="none" fill-rule="evenodd">
        <g id="Packages---1600" transform="translate(-216.000000, -76.000000)">
            <g id="Section---Hero" transform="translate(0.000000, 60.000000)">
                <g id="Navigation">
                    <g id="Logo/SecurityChoice" transform="translate(216.000000, 16.000000)">
                        <mask id="mask-2" fill="white">
                            <use xlink:href="#path-1"></use>
                        </mask>
                        <g id="Mask"></g>
                        <g id="1-Color/3-Neutrals/8-White" mask="url(#mask-2)" fill="#454545" fill-rule="evenodd">
                            <polygon id="#454545" points="0 0 240 0 240 22.9294479 0 22.9294479"></polygon>
                        </g>
                    </g>
                </g>
            </g>
        </g>
    </g>
</svg>
