<?xml version="1.0" encoding="UTF-8"?>
<svg width="384px" height="317px" viewBox="0 0 384 317" version="1.1" xmlns="http://www.w3.org/2000/svg" xmlns:xlink="http://www.w3.org/1999/xlink">
    <!-- Generator: Sketch 49 (51002) - http://www.bohemiancoding.com/sketch -->
    <title>ADT Shape</title>
    <desc>Created with Sketch.</desc>
    <defs></defs>
    <g id="Page-Updates---032018" stroke="none" stroke-width="1" fill="none" fill-rule="evenodd" fill-opacity="0.150000006">
        <g id="Home---768" transform="translate(0.000000, -2274.000000)" fill="#0061AA">
            <g id="Section---GAFQ-Urgency" transform="translate(0.000000, 2274.000000)">
                <g id="BG">
                    <path d="M-215.987203,-403.243988 L-460.239986,-159.150411 C-461.36605,-158.025081 -461.998728,-156.498365 -461.998728,-154.906388 L-461.998728,190.565668 C-461.998728,192.157645 -461.36605,193.684361 -460.239986,194.809692 L-215.987203,438.903268 C-214.862097,440.02764 -213.336567,440.659245 -211.745945,440.659245 L133.401625,440.659245 C134.992233,440.659245 136.517753,440.027651 137.642856,438.903294 L381.898664,194.809696 C383.024745,193.684364 383.657433,192.157636 383.657433,190.565647 L383.657433,-154.906366 C383.657433,-156.498356 383.024745,-158.025083 381.898664,-159.150416 L137.642856,-403.244014 C136.517753,-404.36837 134.992233,-404.999964 133.401625,-404.999964 L-211.745945,-404.999964 C-213.336567,-404.999964 -214.862097,-404.36836 -215.987203,-403.243988 Z" id="ADT-Shape"></path>
                </g>
            </g>
        </g>
    </g>
</svg>